<?xml version="1.0" encoding="utf-8"?>
<!-- Generator: Adobe Illustrator 25.2.3, SVG Export Plug-In . SVG Version: 6.00 Build 0)  -->
<svg version="1.1" id="Layer_1" xmlns="http://www.w3.org/2000/svg" xmlns:xlink="http://www.w3.org/1999/xlink" x="0px" y="0px"
	 viewBox="0 0 564 564" style="enable-background:new 0 0 564 564;" xml:space="preserve">
<style type="text/css">
	.st0{fill:#FFFFFF;}
	.st1{fill:none;stroke:#F0EFEF;stroke-width:1.5;stroke-miterlimit:10;}
	.st2{fill:#573E7D;}
</style>
<image style="overflow:visible;opacity:0.5;enable-background:new    ;" width="2350" height="2350" xlink:href="CE516C8ECA3CE4A7.png"  transform="matrix(0.24 0 0 0.24 0 0)">
</image>
<path class="st0" d="M108.1,31h347.8c42.6,0,77.1,34.5,77.1,77.1v347.8c0,42.6-34.5,77.1-77.1,77.1H108.1
	C65.5,533,31,498.5,31,455.9V108.1C31,65.5,65.5,31,108.1,31z"/>
<path class="st1" d="M108.1,31h347.8c42.6,0,77.1,34.5,77.1,77.1v347.8c0,42.6-34.5,77.1-77.1,77.1H108.1
	C65.5,533,31,498.5,31,455.9V108.1C31,65.5,65.5,31,108.1,31z"/>
<path class="st2" d="M121,401.5c0,22.9,18.6,41.5,41.5,41.5h239c22.9,0,41.5-18.6,41.5-41.5v-239c0-22.9-18.6-41.5-41.5-41.5h-239
	c-22.9,0-41.5,18.6-41.5,41.5V401.5L121,401.5z"/>
<path class="st0" d="M254.5,263.4v-45.6h40.1c3.7,0,7.4,0.3,11.1,1c3.3,0.6,6.5,1.7,9.4,3.4c2.7,1.7,5,4,6.6,6.8
	c1.8,3.5,2.6,7.3,2.5,11.2c0,8.2-2.5,14.1-7.4,17.8s-11.2,5.4-18.8,5.4H254.5z M211.6,184.5v195h94.5c8.6,0,17.2-1.1,25.5-3.3
	c7.9-2,15.4-5.4,22.1-10.1c6.5-4.6,11.8-10.6,15.4-17.6c3.8-7.2,5.8-15.7,5.8-25.5c0-12.2-3-22.6-8.9-31.3s-14.9-14.7-26.9-18.2
	c8.7-4.2,15.3-9.5,19.8-16.1c4.5-6.6,6.7-14.8,6.7-24.6c0-9.1-1.5-16.8-4.5-22.9c-2.8-6-7.2-11.2-12.7-14.9c-6-3.9-12.6-6.6-19.7-8
	c-8.4-1.7-16.9-2.5-25.4-2.4L211.6,184.5z M254.5,346.2v-53.5h46.7c9.3,0,16.8,2.1,22.4,6.4c5.6,4.3,8.5,11.4,8.5,21.4
	c0,5.1-0.9,9.3-2.6,12.6c-1.6,3.2-4,5.8-7,7.8c-3.1,2-6.5,3.4-10.1,4.1c-3.9,0.8-8,1.2-12,1.2L254.5,346.2z"/>
</svg>
