<?xml version="1.0" encoding="utf-8"?>
<!-- Generator: Adobe Illustrator 25.2.3, SVG Export Plug-In . SVG Version: 6.00 Build 0)  -->
<svg version="1.1" id="Layer_1" xmlns="http://www.w3.org/2000/svg" xmlns:xlink="http://www.w3.org/1999/xlink" x="0px" y="0px"
	 viewBox="0 0 564 564" style="enable-background:new 0 0 564 564;" xml:space="preserve">
<style type="text/css">
	.st0{fill:#FFFFFF;}
	.st1{fill:none;stroke:#F0EFEF;stroke-width:1.5;stroke-miterlimit:10;}
	.st2{fill:#435BA9;}
	.st3{fill:#4767B0;}
	.st4{fill:#EBEBEB;}
</style>
<image style="overflow:visible;opacity:0.5;enable-background:new    ;" width="2350" height="2350" xlink:href="34DEC135B87AFE82.png"  transform="matrix(0.24 0 0 0.24 0 0)">
</image>
<path class="st0" d="M108.1,31h347.8c42.6,0,77.1,34.5,77.1,77.1v347.8c0,42.6-34.5,77.1-77.1,77.1H108.1
	C65.5,533,31,498.5,31,455.9V108.1C31,65.5,65.5,31,108.1,31z"/>
<path class="st1" d="M108.1,31h347.8c42.6,0,77.1,34.5,77.1,77.1v347.8c0,42.6-34.5,77.1-77.1,77.1H108.1
	C65.5,533,31,498.5,31,455.9V108.1C31,65.5,65.5,31,108.1,31z"/>
<g id="layer1">
	<polygon id="polygon2989" class="st2" points="435.1,108.4 407.2,420.8 281.8,455.6 156.8,420.9 128.9,108.4 	"/>
	<polygon id="polygon2991" class="st3" points="282,429 383.3,401 407.1,133.9 282,133.9 	"/>
	<polygon id="polygon2993" class="st4" points="282,249.9 192.8,249.9 196.2,288.2 282,288.2 	"/>
	<polygon id="polygon2995" class="st4" points="282,172.3 281.9,172.3 185.9,172.3 189.4,210.6 282,210.6 	"/>
	<polygon id="polygon2997" class="st4" points="197.9,307.3 203.3,367.5 281.8,389.3 282,389.3 282,349.4 281.8,349.4 239.1,337.9 
		236.4,307.3 215.7,307.3 	"/>
	<polygon id="polygon3005" class="st0" points="329.1,288.2 324.6,337.9 281.9,349.4 281.9,389.3 360.4,367.5 361,361 370,260.1 
		370.9,249.9 377.9,172.3 281.9,172.3 281.9,210.6 335.9,210.6 332.4,249.9 281.9,249.9 281.9,288.2 	"/>
</g>
</svg>
