<?xml version="1.0" encoding="utf-8"?>
<!-- Generator: Adobe Illustrator 25.2.3, SVG Export Plug-In . SVG Version: 6.00 Build 0)  -->
<svg version="1.1" id="Layer_1" xmlns="http://www.w3.org/2000/svg" xmlns:xlink="http://www.w3.org/1999/xlink" x="0px" y="0px"
	 viewBox="0 0 564 564" style="enable-background:new 0 0 564 564;" xml:space="preserve">
<style type="text/css">
	.st0{fill:#FFFFFF;}
	.st1{fill:none;stroke:#F0EFEF;stroke-width:1.5;stroke-miterlimit:10;}
	.st2{fill:#599642;}
	.st3{fill:#6DAC46;}
	.st4{fill:#C3BFBF;}
	.st5{fill:#48484A;}
</style>
<image style="overflow:visible;opacity:0.5;enable-background:new    ;" width="2350" height="2350" xlink:href="129605F335D90F2B.png"  transform="matrix(0.24 0 0 0.24 0 0)">
</image>
<path class="st0" d="M108.1,31h347.8c42.6,0,77.1,34.5,77.1,77.1v347.8c0,42.6-34.5,77.1-77.1,77.1H108.1
	C65.5,533,31,498.5,31,455.9V108.1C31,65.5,65.5,31,108.1,31z"/>
<path class="st1" d="M108.1,31h347.8c42.6,0,77.1,34.5,77.1,77.1v347.8c0,42.6-34.5,77.1-77.1,77.1H108.1
	C65.5,533,31,498.5,31,455.9V108.1C31,65.5,65.5,31,108.1,31z"/>
<path class="st2" d="M108.8,201.7l4.3,8.1c0.9,1.5,2,2.8,3.2,4.1c3.6,3.6,7,7.4,10.1,11.4c7.3,9.6,12.2,20.2,15.8,31.8
	c2.1,7,3.2,14.2,3.3,21.5c0.4,21.8-7.1,40.5-22.3,56.1c-2.4,2.5-5.1,4.7-7.9,6.8c-1.5,0-2.2-1.2-2.8-2.2c-1.1-2-1.9-4.1-2.2-6.3
	c-0.6-2.6-0.8-5.3-0.7-8v-1.2C109.6,323.4,108.2,202.3,108.8,201.7L108.8,201.7z"/>
<path class="st3" d="M108.8,201.4c-0.2-0.4-0.3-0.1-0.5,0.1c0,1.7-0.5,3.4-1.5,4.8c-1.1,1.4-2.4,2.7-3.9,3.9
	c-7.7,6.8-14.1,15-18.9,24.1c-6.4,12.2-10.1,25.7-10.9,39.4c-0.4,5,1.6,22.7,3.2,27.8c4.3,13.5,12.1,24.9,22.1,34.7
	c2.5,2.4,5.1,4.6,7.8,6.7c0.8,0,0.9-0.7,1.1-1.2c0.3-1.1,0.6-2.3,0.8-3.4c0.8-4.4,1.2-8.8,1.8-13.2L108.8,201.4L108.8,201.4z"/>
<path class="st4" d="M113.1,346.8c0.3-1.9,1.1-3.8,2.2-5.4c-1-0.5-1.9-1.3-2.5-2.3c-0.5-0.9-1-1.9-1.3-2.9
	c-1.1-3.7-1.7-7.5-1.8-11.3v-2.3c-0.4,0.4-0.5,3.3-0.5,3.8c-0.3,4-0.8,8-1.6,11.9c-0.1,1.6-0.6,3.2-1.4,4.6c0,0.2,0,0.4,0.1,0.6
	c1.4,4.6,2.2,9.4,2.3,14.2v1.8c0,2.1-0.1,1.7,1.7,2.4c0.8,0.2,1.5,0.5,2.2,0.9c0.5,0,0.6-0.4,0.6-0.8l-0.3-2.9v-8
	C112.7,349.6,112.9,348.2,113.1,346.8L113.1,346.8z"/>
<path class="st5" d="M179.9,310v8.4c0,0.3,0,0.7,0.1,1c0.1,0.9,0.7,1.7,1.6,1.9c0.8,0.2,1.7,0.4,2.5,0.5c0.5,0,0.7,0.3,0.7,0.8
	c0.1,1.9-0.1,2.1-1.9,2c-4.2-0.3-8.5-0.3-12.7,0h-0.4c-1.3,0-1.4-0.1-1.4-1.4c0-0.2,0.1-0.5,0.1-0.7c0-0.3,0.2-0.6,0.6-0.6
	c0,0,0.1,0,0.1,0c0.9-0.1,1.7-0.3,2.5-0.5c1.1-0.2,1.9-1.1,1.9-2.1c0.1-1.3,0.2-2.6,0.2-3.9l0.1-14.8c0-0.9-0.4-1.7-1.2-2.1
	c-1-0.6-2.1-1-3.1-1.3c-0.3-0.1-0.6-0.2-0.9-0.3c-0.8-0.4-0.8-1.1-0.1-1.5c0.3-0.2,0.6-0.3,0.9-0.3c3.3-0.5,6.6-1.3,9.8-2.5
	c0.7-0.2,0.8-0.2,0.9,0.5c0,0.4,0,0.9-0.1,1.3c-0.1,0.7-0.1,1.4-0.1,2.1c0,0.3,0.1,0.6,0.3,0.7c0.3,0.2,0.6,0,0.8-0.2
	c1.1-0.9,2.3-1.7,3.6-2.4c1.8-1.1,3.8-1.8,5.8-2.1c2.4-0.4,4.9,0.4,6.7,2c0.8,0.7,1.5,1.5,2.1,2.4c0.6,0.8,0.6,0.8,1.3,0.3
	c2.1-1.6,4.3-2.9,6.7-3.9c2.4-1.1,5.1-1.2,7.6-0.3c2.5,0.9,4.5,2.8,5.4,5.2c0.9,1.9,1.3,4,1.3,6.2V319c0,0.9,0.5,1.8,1.4,2.1
	c1.1,0.4,2.2,0.6,3.3,0.8c0.7,0.2,0.7,0.2,0.7,0.9c-0.1,1.8-0.3,1.9-2,1.8c-4.4-0.2-8.9-0.2-13.3,0c-0.9,0.1-0.9,0.1-0.9-0.8v-0.3
	c-0.1-1.5-0.1-1.5,1.4-1.8l1.4-0.4c1-0.2,1.7-1.1,1.7-2.1l0.2-4.1l-0.1-10.8c0-1-0.2-1.9-0.6-2.8c-1.1-3-4.2-4.7-7.3-4.2
	c-2.2,0.2-4.2,1.1-6,2.4c-0.4,0.2-0.7,0.7-0.6,1.2c0.5,3.5,0.2,7.1,0.2,10.6v7.7c-0.1,1.2,0.7,2.2,1.8,2.4c0,0,0,0,0,0l2.6,0.5
	c0.3,0,0.6,0.2,0.6,0.6c0,0,0,0.1,0,0.1v0.4c-0.1,1.5-0.2,1.6-1.7,1.6c-4.4-0.2-8.8-0.2-13.2,0c-1.5,0.1-1.6-0.1-1.6-1.6
	c0.1-0.9,0.2-0.9,1-1.1l1.8-0.3c1.6-0.3,2.2-0.9,2.3-2.6l0.2-3.7l-0.1-11.2c-0.1-1.4-0.5-2.8-1.2-4c-1-2-3-3.2-5.2-3.2
	c-2.3,0-4.5,0.6-6.5,1.8c-1.3,0.6-2,2-1.9,3.4L179.9,310L179.9,310z M283.7,310.4v7.8c0,0.5,0,1.1,0.1,1.7c0,0.7,0.6,1.4,1.3,1.5
	c1,0.3,1.9,0.4,2.9,0.5c0.6,0,0.7,0.3,0.7,0.7v0.4c0,1.9-0.3,2.1-2.1,2c-4.2-0.2-8.4-0.2-12.6,0l-1.6,0.1c-0.3,0-0.4-0.2-0.5-0.4
	c-0.2-0.8-0.2-1.5,0-2.3c0-0.3,0.3-0.4,0.6-0.5c0.8-0.1,1.5-0.3,2.3-0.4c1.2-0.1,2-1.1,1.9-2.2c0,0,0-0.1,0-0.1l0.2-4.6v-13.6
	c0-0.9-0.5-1.7-1.3-2c-1-0.5-2.1-1-3.1-1.3c-0.3-0.1-0.6-0.2-0.9-0.4c-0.5-0.2-0.7-0.8-0.5-1.3c0.1-0.2,0.2-0.3,0.4-0.4
	c0.3-0.3,0.7-0.4,1.1-0.4c3.5-0.5,6.9-1.4,10.3-2.6c0.4-0.2,0.5-0.1,0.7,0.3c0.2,0.3,0.2,0.7,0.2,1.1l-0.2,2.6
	c0,0.3-0.2,0.8,0.1,0.9s0.5-0.3,0.8-0.4c1.6-1.4,3.4-2.5,5.4-3.4c1.7-0.9,3.6-1.3,5.5-1.2c3.5,0.2,6.5,2.2,8,5.4
	c0.8,1.7,1.3,3.6,1.4,5.5l0.2,4l0.1,12.2c0,0.9,0.5,1.6,1.3,1.9c1,0.3,2,0.6,3,0.7c0.9,0.1,0.9,0.3,1,1.1v0.3
	c-0.1,1.9-0.2,1.9-2.1,1.8c-4.1-0.2-8.2-0.2-12.3,0c-0.5,0.1-1.1,0-1.6,0.1c-0.3,0-0.5-0.1-0.6-0.4c-0.2-0.7-0.2-1.5-0.1-2.2
	c0-0.3,0.3-0.5,0.6-0.5l2.5-0.4c0.8-0.1,1.4-0.8,1.5-1.6l0.1-1.5l-0.1-11.5c0-1.3-0.1-2.7-0.3-4c-0.6-2.8-2.9-4.9-5.7-5.1
	c-2.5-0.3-4.9,0.4-7,1.8c-1,0.6-1.6,1.6-1.5,2.8v8.3c0-0.2,0-0.2,0.1-0.2L283.7,310.4z"/>
<path class="st4" d="M445.2,294.8c-1-7.6-6.1-14.1-13.2-17c-3.5-1.3-7.2-2-10.9-2c-1.5,0-22.6,0.3-24.1,0c-0.3-0.1-0.7,0.1-0.9,0.4
	c-0.3,0.4-0.5,0.8-0.7,1.3c-0.7,1.5-0.7,1.4,0.9,1.6c1.3,0.2,2.6,0.4,3.9,0.7c1.1,0.3,2,1.2,2.3,2.3c0.1,0.6,0.2,20,0.2,29l-0.2,6.5
	c0,0.5-0.1,1-0.3,1.4c-0.2,0.7-0.6,1.2-1.3,1.5c-0.7,0.3-1.5,0.5-2.3,0.6c-1.5,0.2-1.7,0.2-2.2,1.9l-0.2,0.6
	c-0.1,0.7-0.1,0.8,0.7,0.8l16.5,0.2l6.5-0.1l4.5-0.6c5-0.9,9.6-3.1,13.4-6.4c2.2-1.9,4-4.3,5.3-6.9c1.5-3.1,2.3-6.4,2.4-9.9
	C445.6,298.7,445.5,296.7,445.2,294.8L445.2,294.8z M437.2,302.6c-0.1,3.5-1.1,6.9-2.8,10c-2.1,4-5.8,6.8-10.2,7.8
	c-3.4,0.7-7,0.5-10.4-0.5c-2.5-0.9-3.4-2.4-3.4-4.8v-33.2c0-2,0.9-2.4,2.3-2.5c2.2-0.2,4.3-0.1,6.5,0.1c2.3,0.2,4.5,0.8,6.7,1.6
	c1.6,0.7,3.1,1.6,4.4,2.7c2.9,2.5,5,5.8,6,9.5c0.8,3,1.1,6.1,0.9,9.2L437.2,302.6z M491,308c0-0.3,0-0.6,0-0.9
	c-0.5-2.9-2.1-5.5-4.6-7.1c-1.6-1.1-3.4-2-5.3-2.5c-0.3-0.1-0.6-0.2-0.9-0.3c0-0.3,0.2-0.3,0.4-0.4c1.1-0.5,2.1-1.2,3.1-2
	c1.7-1.4,2.9-3.3,3.4-5.4c0.3-1.2,0.4-2.3,0.2-3.5c-0.2-2.9-1.7-5.5-4-7.2c-2.5-1.8-5.5-2.7-8.6-2.7c-6-0.1-12,0-17.9,0
	c-1.7,0.1-3.5,0-5.2-0.2c-0.3-0.1-0.8-0.2-1,0.2c-0.5,0.7-0.8,1.5-1,2.3c0,0.4,0.1,0.6,0.5,0.7l3.8,0.5c1.5,0.2,2.5,1,2.6,2.4
	c0.1,0.9,0.2,1.8,0.2,2.8l-0.1,10.3l0,20.4c0,1.2-0.2,2.4-0.5,3.6c-0.1,0.8-0.7,1.4-1.4,1.6c-1.1,0.4-2.2,0.6-3.3,0.7
	c-0.6-0.1-1.2,0.3-1.4,0.9c-0.2,0.5-0.4,1-0.5,1.5c-0.1,0.7,0.1,0.9,0.7,0.8c0.5-0.1,18.7,0.4,22.1,0.1c2-0.2,4.1-0.6,6.1-1.1
	c3.5-1,6.7-2.8,9.2-5.4c2.1-2.1,3.3-5,3.4-7.9C491,309.5,491,308.7,491,308z M464.3,285.4l0.2-4.4c-0.1-0.7,0.4-1.3,1.1-1.4
	c0,0,0.1,0,0.1,0c1.3-0.2,2.7-0.2,4-0.1c1.3,0.1,2.6,0.3,3.9,0.7c2.4,0.6,4.3,2.2,5.4,4.4c0.5,1.1,0.8,2.2,0.8,3.4
	c0.1,1.5-0.1,3.1-0.7,4.5c-0.8,2-2.5,3.4-4.6,3.8c-3.1,0.3-6.1,0.3-9.2,0.2c-0.8,0-0.9-0.1-0.9-0.9v-5.2
	C464.2,288.7,464.2,287.1,464.3,285.4L464.3,285.4z M482.2,315.1c-0.8,2.4-2.7,4.3-5.1,5.1c-1.3,0.5-2.6,0.8-4,0.7
	c-1.7,0-3.4-0.1-5.1-0.3c-2-0.5-3.4-2.3-3.5-4.3c-0.3-2.8-0.1-5.7-0.2-7.8v-7.3c0-0.9,0.1-1.2,1-1.2l5.2,0.1l3.5,0.4
	c2.5,0.4,4.8,1.6,6.5,3.4c1.4,1.5,2.2,3.4,2.4,5.5C483.2,311.3,482.9,313.2,482.2,315.1L482.2,315.1z"/>
<path class="st5" d="M342.1,298.5l1.4,0.2c1.8,0.2,3.5-0.9,3.9-2.6c0.3-1,0.3-2.1,0-3.1c-0.3,0-0.5,0.3-0.7,0.4
	c-0.8,0.6-1.7,1-2.8,1.1c-2,0.3-4,0.1-5.9-0.6l-2.7-0.9c-1.9-0.6-3.9-0.9-5.8-0.8c-2.8,0.3-5.5,1.1-7.9,2.5
	c-2.6,1.3-4.6,3.7-5.4,6.5c-0.5,1.7-0.6,3.5-0.3,5.2c0.3,3.8,2.8,7,6.4,8.3c0.2,0.1,0.4,0.2,0.6,0.2c0.5,0.3,0.5,0.6,0.1,0.9
	l-1.4,0.9l-3.3,2c-0.6,0.2-1,0.9-0.7,1.6c0,0.1,0.1,0.1,0.1,0.2c0.3,1,0.9,1.9,1.8,2.6c0.8,0.6,1.6,1.2,2.5,1.5
	c0.6,0.3,0.6,0.4,0.1,0.9l-3.1,2.3c-1.1,0.8-2.1,1.7-3,2.6c-1.3,1.3-1.8,3.2-1.3,5c0.4,1.9,1.4,3.7,2.9,5c1.4,1.3,3.2,2.3,5.1,2.8
	c7.6,2,15.6-0.3,21-5.9c2.2-2.1,3.4-5,3.5-8.1c0.2-3.8-2.3-7.1-6-8l-3-0.5l-9.1-0.8c-1,0-1.9-0.3-2.8-0.7c-0.9-0.5-1.3-1.6-0.8-2.5
	c0-0.1,0.1-0.1,0.1-0.2c0.5-0.6,1.1-0.9,1.9-1l1.8-0.2c3.5-0.4,6.8-1.9,9.3-4.2c1.4-1.3,2.3-2.9,2.8-4.7c0.6-2.4,0.7-4.9,0.1-7.3
	c-0.2-0.6-0.1-0.7,0.7-0.5L342.1,298.5z M328.6,325.9c0.3,0,0.7,0,1,0c2.3,0,4.7,0.3,6.9,0.9c0.7,0.2,1.5,0.5,2.1,0.8
	c2,1.1,3.1,3.3,2.8,5.6c-0.3,2.3-1.7,4.4-3.9,5.4c-1.5,0.8-3.1,1.2-4.7,1.3c-0.6,0-1.2,0-1.8,0c-1.9,0.1-3.8-0.2-5.6-0.9
	c-1.2-0.5-2.3-1.2-3.2-2.2c-2.3-2.2-2.4-5.8-0.2-8.1c0.1-0.1,0.2-0.2,0.3-0.3C323.9,326.7,326.2,325.8,328.6,325.9z M334.9,308.7
	c-0.9,2.5-3.6,4-6.2,3.4c-2.2-0.3-4.2-1.7-5.1-3.7c-1.4-2.7-1.8-5.8-1-8.8c0.4-2.2,2.2-4,4.4-4.4c3.1-0.7,6.2,0.8,7.6,3.6
	c0.9,1.8,1.3,3.9,1.2,5.9C335.6,306.2,335.4,307.5,334.9,308.7L334.9,308.7z M265.4,305c-0.4-2.9-1.7-5.7-3.6-7.9
	c-2.9-3.2-7-5-11.2-4.9c-3.7,0-7.4,1-10.6,3c-3.1,1.9-5.5,4.9-6.4,8.4c-0.9,3.2-0.9,6.5-0.2,9.7c1.9,8.7,8.7,12.5,16.7,11.9
	c2.4-0.2,4.7-0.9,6.8-2c3.1-1.4,5.6-3.9,7.1-7c1.3-2.6,1.9-5.6,1.8-8.5L265.4,305L265.4,305z M257.6,317.2c-0.8,2.5-3,4.4-5.7,4.6
	c-2.4,0.3-4.8-0.3-6.7-1.7c-1.5-1.1-2.7-2.5-3.5-4.1c-2.2-4.5-2.7-9.6-1.5-14.4c0.4-1.5,1.2-2.9,2.3-4c1.9-1.8,4.6-2.4,7.1-1.8
	c2.4,0.5,4.6,2,6,4c1.5,2.1,2.4,4.5,2.8,7c0.2,1.1,0.2,2.3,0.3,3.4C258.8,312.7,258.5,315,257.6,317.2L257.6,317.2z M385.9,305.4
	c-0.8-7.7-7.3-13.4-15-13.2c-3.6,0-7.1,0.9-10.2,2.8c-3.5,1.9-6,5.2-6.9,9.1c-1.1,4.4-0.6,9,1.3,13.1c1.7,3.7,5,6.5,9,7.4
	c4.4,1.2,9,0.7,13-1.4c3.5-1.6,6.3-4.6,7.7-8.3c0.9-2.3,1.3-4.8,1.3-7.3C386.1,306.9,386,306.2,385.9,305.4L385.9,305.4z
	 M378.3,316.5c-0.9,3-2.8,4.9-5.9,5.4c-2.3,0.3-4.6-0.2-6.5-1.5c-1.6-1.1-3-2.7-3.8-4.5c-1-1.9-1.6-3.9-1.8-6.1
	c-0.4-2.6-0.3-5.2,0.3-7.7c0.1-0.5,0.3-1,0.5-1.5c1.3-3.7,5.2-5.8,9-4.7c2.6,0.6,4.8,2.1,6.3,4.4c1.4,2.2,2.3,4.7,2.5,7.3
	c0.2,1,0.2,2.1,0.2,3.1C379.1,312.6,378.8,314.6,378.3,316.5L378.3,316.5z"/>
</svg>
