<?xml version="1.0" encoding="utf-8"?>
<!-- Generator: Adobe Illustrator 25.2.3, SVG Export Plug-In . SVG Version: 6.00 Build 0)  -->
<svg version="1.1" id="Layer_1" xmlns="http://www.w3.org/2000/svg" xmlns:xlink="http://www.w3.org/1999/xlink" x="0px" y="0px"
	 viewBox="0 0 564 564" style="enable-background:new 0 0 564 564;" xml:space="preserve">
<style type="text/css">
	.st0{fill:#FFFFFF;}
	.st1{fill:none;stroke:#F0EFEF;stroke-width:1.5;stroke-miterlimit:10;}
	.st2{fill:#01628B;}
	.st3{fill:#E38F25;}
	.st4{fill-rule:evenodd;clip-rule:evenodd;fill:#01628B;}
	.st5{fill-rule:evenodd;clip-rule:evenodd;fill:#E38F25;}
</style>
<image style="overflow:visible;opacity:0.5;enable-background:new    ;" width="2350" height="2350" xlink:href="5BD4EFFC2432995B.png"  transform="matrix(0.24 0 0 0.24 0 0)">
</image>
<path class="st0" d="M108.1,31h347.8c42.6,0,77.1,34.5,77.1,77.1v347.8c0,42.6-34.5,77.1-77.1,77.1H108.1
	C65.5,533,31,498.5,31,455.9V108.1C31,65.5,65.5,31,108.1,31z"/>
<path class="st1" d="M108.1,31h347.8c42.6,0,77.1,34.5,77.1,77.1v347.8c0,42.6-34.5,77.1-77.1,77.1H108.1
	C65.5,533,31,498.5,31,455.9V108.1C31,65.5,65.5,31,108.1,31z"/>
<path class="st2" d="M79.1,368.1h13.4v-52.8l20.7,46c2.4,5.5,5.8,7.5,12.3,7.5s9.8-2,12.2-7.5l20.7-46v52.8h13.4v-52.7
	c0-5.1-2.1-7.6-6.3-8.9c-10.2-3.2-17-0.4-20.1,6.4l-20.3,45.4l-19.7-45.4c-3-6.9-9.9-9.6-20.1-6.4c-4.2,1.3-6.3,3.8-6.3,8.9V368.1z
	 M182.9,325.1h13.4v29.1c-0.1,1.6,0.5,5.3,7.8,5.4c3.7,0.1,28.8,0,29.1,0V325h13.4c0,0,0,47.2,0,47.4c0.1,11.6-14.4,14.2-21.1,14.4
	h-42.2v-9h42.3c8.6-0.9,7.6-5.2,7.6-6.6v-3.5h-28.4c-13.2-0.1-21.6-5.9-21.7-12.5C182.9,354.5,183.2,325.4,182.9,325.1L182.9,325.1z
	"/>
<path class="st3" d="M256.9,368.1h38.4c4.3,0,8.5-0.8,12.4-2.6c5.8-2.7,8.6-6.3,8.6-11v-9.8c0-3.9-3.2-7.5-9.5-9.9
	c-3.7-1.3-7.5-2-11.4-2h-16.2c-5.4,0-8-1.6-8.6-5.2c-0.1-0.4-0.1-0.8-0.1-1.2v-6.1c0-0.4,0-0.7,0.1-1.1c0.6-2.7,2.1-3.5,6.8-4
	c0.4,0,0.9-0.1,1.3-0.1h38.2v-8.9h-37.5c-5.4,0-8.2,0.3-10.8,1.1c-8,2.5-11.4,6.5-11.4,13.3v7.8c0,6,6.8,11.1,18.2,12.3
	c1.3,0.1,2.6,0.2,3.9,0.2H293c0.5,0,0.9,0,1.4,0.1c4.2,0.3,6,1.1,7.3,2.7c0.7,0.6,1,1.5,1,2.4v7.9c-0.1,1.3-0.9,2.4-1.9,3.2
	c-1.6,1.2-3.6,1.9-5.7,1.9c-0.5,0-0.9,0.1-1.4,0.1h-36.9V368.1L256.9,368.1z M399.6,352.6c0,9.2,6.8,14.3,20.6,15.3
	c1.3,0.1,2.6,0.1,3.9,0.2h34.8v-8.9h-35.1c-7.8,0-10.8-2-10.8-6.7v-46.1h-13.4V352.6L399.6,352.6z M324.8,353v-31.8
	c0-8.1,5.7-13,16.9-14.5c1.2-0.2,2.4-0.3,3.6-0.3h25.4c1.3,0,2.5,0.1,3.7,0.3c11.2,1.5,16.9,6.4,16.9,14.5V353
	c0,6.5-2.4,10.1-8,12.3l13.2,11.9h-15.5l-10.6-9.6l-10.7,0.7h-14.3c-2.7,0-5.3-0.4-7.9-1.1C328.9,364.9,324.8,360.4,324.8,353
	L324.8,353z M339.2,352.2c0,0.5,0.1,0.9,0.3,1.4c0.8,3.7,4.2,5.8,9.5,5.8h12.1L350,349.3h15.5l9.7,8.8c1.7-0.8,3-2.4,3.4-4.3
	c0.1-0.4,0.2-0.9,0.1-1.3V322c0-0.4,0-0.8-0.1-1.2c-0.8-3.4-4.2-5.4-9.4-5.4H349c-5.9,0-9.8,2.6-9.8,6.6L339.2,352.2L339.2,352.2z"
	/>
<path class="st2" d="M470.7,291.6c-8.2-0.2-14.5,0.5-19.9,2.8c-1.5,0.6-4,0.7-4.2,2.6c0.8,0.9,1,2.2,1.6,3.3
	c1.4,2.4,3.3,4.5,5.4,6.3c2.1,1.7,4.3,3.2,6.5,4.7c4,2.5,8.5,3.9,12.4,6.3c2.3,1.5,4.5,3.3,6.8,4.9c1.1,0.8,1.8,2.1,3.3,2.6v-0.2
	c-0.8-1-1-2.3-1.6-3.3l-3-3c-3-3.9-6.7-7.4-10.7-10.3c-3.2-2.3-10.4-5.4-11.7-9.1l-0.2-0.2c2.4-0.4,4.7-0.9,7-1.6
	c3.5-0.9,6.6-0.7,10.3-1.6l4.9-1.4v-0.9c-1.8-1.9-3.1-4.4-5.1-6.1c-5.3-4.6-10.9-8.8-16.8-12.6c-3.3-2.1-7.3-3.4-10.8-5.1
	c-1.2-0.6-3.2-0.9-4-1.9c-1.8-2.3-2.8-5.2-4.2-7.9c-2.9-5.6-5.8-11.8-8.4-17.8c-1.8-4-2.9-8-5.1-11.7c-10.6-17.4-22-28-39.7-38.3
	c-3.8-2.2-8.3-3.1-13.1-4.2l-7.7-0.5c-1.6-0.7-3.2-2.6-4.7-3.5c-5.9-3.7-20.9-11.8-25.2-1.2c-2.7,6.7,4.1,13.2,6.5,16.6
	c1.7,2.4,3.9,5,5.1,7.7c0.8,1.8,1,3.5,1.6,5.4c1.7,4.6,3.2,9.6,5.4,13.8c1.1,2.2,2.3,4.3,3.7,6.3c0.9,1.2,2.3,1.7,2.6,3.5
	c-1.4,2-1.5,5.1-2.3,7.7c-3.6,11.5-2.3,25.8,3,34.4c1.6,2.6,5.5,8.2,10.8,6.1c4.6-1.9,3.6-7.7,4.9-12.9c0.3-1.2,0.1-2,0.7-2.8v0.2
	l4.2,8.4c3.1,5,8.6,10.2,13.3,13.8c2.4,1.8,4.4,5,7.5,6.1v-0.2h-0.2c-0.6-1-1.6-1.3-2.3-2.1c-1.9-1.9-3.7-3.9-5.4-6.1
	c-4.3-5.9-8.1-12.2-11.4-18.7c-1.6-3.1-3.1-6.6-4.4-9.8c-0.5-1.2-0.5-3.1-1.6-3.7c-1.5,2.3-3.7,4.2-4.9,7c-1.9,4.4-2.1,9.8-2.8,15.4
	c-0.4,0.1-0.2,0-0.5,0.2c-3.3-0.8-4.4-4.1-5.6-7c-3.1-7.3-3.6-19-0.9-27.3c0.7-2.2,3.9-9,2.6-11c-0.6-2-2.6-3.2-3.7-4.7
	c-1.5-2-2.7-4.2-3.7-6.5c-2.5-5.7-3.7-12-6.3-17.8c-1.5-2.8-3.2-5.5-5.1-7.9c-1.9-2.7-4.1-4.7-5.6-7.9c-0.5-1.2-1.3-3-0.5-4.2
	c0.2-0.7,0.7-1.2,1.4-1.4c1.4-1.1,5.1,0.3,6.5,0.9c3.5,1.4,6.8,3.1,10,5.1c1.5,1,3.1,3,4.9,3.5h2.2c3.3,0.8,7,0.2,10,1.2
	c5.2,1.7,10.1,4,14.7,7c13.6,8.7,24.6,20.8,32,35.1c1.2,2.3,1.7,4.5,2.8,7c2.2,5,4.9,10.1,7,15s4.2,9.8,7.2,13.8
	c1.6,2.1,7.7,3.3,10.5,4.4c2,0.8,5.2,1.7,7,2.8c3.5,2.1,7,4.7,10.3,7C465.3,287,470.4,289.6,470.7,291.6L470.7,291.6z"/>
<path class="st4" d="M366.2,202.6c-1.4,0-2.8,0.1-4.2,0.4v0.2h0.2c0.8,1.7,2.3,2.8,3.3,4.2l2.3,4.9l0.2-0.2c1.4-1,2.1-2.6,2.1-5.1
	c-0.6-0.6-0.7-1.4-1.2-2.1C368.3,203.9,367,203.4,366.2,202.6L366.2,202.6z"/>
<path class="st5" d="M465.2,358.9c0,5.4,4.4,9.9,9.9,9.9s9.9-4.4,9.9-9.9c0-5.4-4.4-9.9-9.9-9.9c0,0,0,0,0,0
	c-5.4-0.1-9.8,4.2-9.9,9.6C465.2,358.7,465.2,358.8,465.2,358.9z M482.7,358.9c-0.1,4.2-3.6,7.6-7.8,7.5c-4.2-0.1-7.6-3.6-7.5-7.8
	c0.1-4.2,3.5-7.5,7.6-7.5c4.2,0,7.6,3.4,7.7,7.6C482.7,358.8,482.7,358.8,482.7,358.9z M477.7,364.6h2.2l-3.2-4.9c1.7-0.2,3-1,3-3.1
	c0-2.3-1.5-3.2-4.2-3.2H471v11.2h2v-4.9h1.8L477.7,364.6L477.7,364.6z M473,358.1v-3.2h2.2c1.1,0,2.5,0.2,2.5,1.5
	c0,1.6-1.2,1.7-2.7,1.7L473,358.1z"/>
</svg>
