<?xml version="1.0" encoding="utf-8"?>
<!-- Generator: Adobe Illustrator 25.2.3, SVG Export Plug-In . SVG Version: 6.00 Build 0)  -->
<svg version="1.1" id="Layer_1" xmlns="http://www.w3.org/2000/svg" xmlns:xlink="http://www.w3.org/1999/xlink" x="0px" y="0px"
	 viewBox="0 0 564 564" style="enable-background:new 0 0 564 564;" xml:space="preserve">
<style type="text/css">
	.st0{fill:#FFFFFF;}
	.st1{fill:none;stroke:#F0EFEF;stroke-width:1.5;stroke-miterlimit:10;}
	.st2{fill:#44B783;}
	.st3{fill:#364A5E;}
</style>
<image style="overflow:visible;opacity:0.5;enable-background:new    ;" width="2350" height="2350" xlink:href="B08A433B208182DF.png"  transform="matrix(0.24 0 0 0.24 0 0)">
</image>
<path class="st0" d="M108.1,31h347.8c42.6,0,77.1,34.5,77.1,77.1v347.8c0,42.6-34.5,77.1-77.1,77.1H108.1
	C65.5,533,31,498.5,31,455.9V108.1C31,65.5,65.5,31,108.1,31z"/>
<path class="st1" d="M108.1,31h347.8c42.6,0,77.1,34.5,77.1,77.1v347.8c0,42.6-34.5,77.1-77.1,77.1H108.1
	C65.5,533,31,498.5,31,455.9V108.1C31,65.5,65.5,31,108.1,31z"/>
<path id="path4" class="st2" d="M322.3,129.6L282,200.1l-40.3-70.5H106.2L282,434.5l175.8-304.9L322.3,129.6z"/>
<path id="path6" class="st3" d="M322.3,129.6L282,200.1l-40.3-70.5h-65L282,312.7l105.3-183.1H322.3z"/>
</svg>
