<?xml version="1.0" encoding="utf-8"?>
<!-- Generator: Adobe Illustrator 25.2.3, SVG Export Plug-In . SVG Version: 6.00 Build 0)  -->
<svg version="1.1" id="Layer_1" xmlns="http://www.w3.org/2000/svg" xmlns:xlink="http://www.w3.org/1999/xlink" x="0px" y="0px"
	 viewBox="0 0 564 564" style="enable-background:new 0 0 564 564;" xml:space="preserve">
<style type="text/css">
	.st0{fill:#FFFFFF;}
	.st1{fill:none;stroke:#F0EFEF;stroke-width:1.5;stroke-miterlimit:10;}
	.st2{fill:#D5B930;}
	.st3{opacity:0.99;fill:#EBEBEB;fill-opacity:0;enable-background:new    ;}
	.st4{opacity:0.99;fill:#EBEBEB;fill-opacity:0.92;enable-background:new    ;}
	.st5{fill:#FDD83E;}
</style>
<image style="overflow:visible;opacity:0.5;enable-background:new    ;" width="2350" height="2350" xlink:href="23D1A4A8B2ACD818.png"  transform="matrix(0.24 0 0 0.24 0 0)">
</image>
<path class="st0" d="M108.1,31h347.8c42.6,0,77.1,34.5,77.1,77.1v347.8c0,42.6-34.5,77.1-77.1,77.1H108.1
	C65.5,533,31,498.5,31,455.9V108.1C31,65.5,65.5,31,108.1,31z"/>
<path class="st1" d="M108.1,31h347.8c42.6,0,77.1,34.5,77.1,77.1v347.8c0,42.6-34.5,77.1-77.1,77.1H108.1
	C65.5,533,31,498.5,31,455.9V108.1C31,65.5,65.5,31,108.1,31z"/>
<g id="g5193">
	<path id="path5113" class="st2" d="M156.5,421.8l-28.6-315l308.3,0.1l-28.4,314.6l-126,35.6L156.5,421.8z M384.6,404.6l23.9-269.8
		H282.2l1,297.6L384.6,404.6z M270.5,174.4h-30.7l-0.4,161.5l-59.5-16.2l0.1,36.9l90.4,24.5V174.4z"/>
	<path id="path5159" class="st3" d="M260.4,377.9c-4-1.2-23.6-6.5-43.5-11.9l-36.2-9.7v-18.2c0-17.8,0-18.2,1.8-17.6
		c1,0.4,14.2,4,29.3,8.2l27.5,7.6l0.2-80.6l0.2-80.6h30.1v102.4c0,81.4-0.2,102.4-1.1,102.4C268.2,380,264.3,379,260.4,377.9
		L260.4,377.9z"/>
	<path id="path5157" class="st4" d="M180.1,356.5l-0.1-36.9c0,0,38,10.7,59.5,16.2l0.4-161.4h30.7V381L180.1,356.5L180.1,356.5z"/>
	<path id="path5117" class="st5" d="M282.2,134.7h126.2l-23.9,269.8l-102.3,27.8V134.7z M378.1,359.3l8.3-100.9l-61.4,6.9v-53.9
		l65.4-0.2l2.6-36.8l-98.7,0.5l1.3,133.9l59.6-10.2l-0.8,29.8l-60.1,16L295,381L378.1,359.3L378.1,359.3z"/>
</g>
</svg>
