<?xml version="1.0" encoding="utf-8"?>
<!-- Generator: Adobe Illustrator 25.2.3, SVG Export Plug-In . SVG Version: 6.00 Build 0)  -->
<svg version="1.1" id="Layer_1" xmlns="http://www.w3.org/2000/svg" xmlns:xlink="http://www.w3.org/1999/xlink" x="0px" y="0px"
	 viewBox="0 0 564 564" style="enable-background:new 0 0 564 564;" xml:space="preserve">
<style type="text/css">
	.st0{fill:#FFFFFF;}
	.st1{fill:none;stroke:#F0EFEF;stroke-width:1.5;stroke-miterlimit:10;}
	.st2{fill:#EF3F2F;}
</style>
<image style="overflow:visible;opacity:0.5;enable-background:new    ;" width="2350" height="2350" xlink:href="CAC928DB1DA9FE8B.png"  transform="matrix(0.24 0 0 0.24 0 0)">
</image>
<path class="st0" d="M108.1,31h347.8c42.6,0,77.1,34.5,77.1,77.1v347.8c0,42.6-34.5,77.1-77.1,77.1H108.1
	C65.5,533,31,498.5,31,455.9V108.1C31,65.5,65.5,31,108.1,31z"/>
<path class="st1" d="M108.1,31h347.8c42.6,0,77.1,34.5,77.1,77.1v347.8c0,42.6-34.5,77.1-77.1,77.1H108.1
	C65.5,533,31,498.5,31,455.9V108.1C31,65.5,65.5,31,108.1,31z"/>
<path class="st2" d="M472.5,264.4L299.6,91.6c-9.9-9.9-26.1-9.9-36,0l0,0l-35.9,35.9l45.5,45.5c10.9-3.8,23-0.9,31.1,7.3
	c8.2,8.2,11,20.4,7.2,31.3l43.9,43.9c15.8-5.4,33,3,38.5,18.8s-3,33-18.8,38.5s-33-3-38.5-18.8c-2.4-7-2.1-14.6,0.7-21.4l-40.9-40.9
	v107.7c3,1.5,5.7,3.4,8,5.7c11.8,11.8,11.8,31.1,0,42.9s-31.1,11.8-42.9,0l0,0c-11.8-11.8-11.8-31,0-42.9l0,0
	c2.8-2.9,6.2-5.1,9.9-6.6V229.8c-15.5-6.4-22.8-24.1-16.4-39.6c0-0.1,0-0.1,0.1-0.2l-44.9-44.9L91.6,263.5c-9.9,9.9-9.9,26.1,0,36
	l0,0l172.8,172.9c9.9,9.9,26.1,9.9,36,0l0,0l172-171.8c9.9-9.9,9.9-26.1,0-36l0,0"/>
</svg>
