<?xml version="1.0" encoding="utf-8"?>
<!-- Generator: Adobe Illustrator 25.2.3, SVG Export Plug-In . SVG Version: 6.00 Build 0)  -->
<svg version="1.1" id="Layer_1" xmlns="http://www.w3.org/2000/svg" xmlns:xlink="http://www.w3.org/1999/xlink" x="0px" y="0px"
	 viewBox="0 0 564 564" style="enable-background:new 0 0 564 564;" xml:space="preserve">
<style type="text/css">
	.st0{fill:#FFFFFF;}
	.st1{fill:none;stroke:#F0EFEF;stroke-width:1.5;stroke-miterlimit:10;}
	.st2{fill:#CC3937;}
</style>
<image style="overflow:visible;opacity:0.5;enable-background:new    ;" width="2350" height="2350" xlink:href="AEE5F4B8CBF3ECAA.png"  transform="matrix(0.24 0 0 0.24 0 0)">
</image>
<path class="st0" d="M108.1,31h347.8c42.6,0,77.1,34.5,77.1,77.1v347.8c0,42.6-34.5,77.1-77.1,77.1H108.1
	C65.5,533,31,498.5,31,455.9V108.1C31,65.5,65.5,31,108.1,31z"/>
<path class="st1" d="M108.1,31h347.8c42.6,0,77.1,34.5,77.1,77.1v347.8c0,42.6-34.5,77.1-77.1,77.1H108.1
	C65.5,533,31,498.5,31,455.9V108.1C31,65.5,65.5,31,108.1,31z"/>
<g id="layer1">
	<path id="path4951" class="st2" d="M191.9,361.1v-22.6H79.1V202.9h405.8v135.6H282v22.6H191.9z"/>
	<path id="path4949" class="st0" d="M260.1,338.5v-22.8h44.6v-90h-89.9v112.8L260.1,338.5z"/>
	<path id="path4947" class="st2" d="M260.1,248.3H282V293h-21.9V248.3z"/>
	<path id="path4945" class="st0" d="M146.5,315.7v-67.4h22.7v67.4h22.7v-90H102v90H146.5z"/>
	<path id="path2998" class="st0" d="M372.1,315.7v-67.4h22.7v67.4h22.7v-67.4h22.7v67.4H463v-90H327.4v90H372.1z"/>
</g>
</svg>
