<?xml version="1.0" encoding="utf-8"?>
<!-- Generator: Adobe Illustrator 25.2.3, SVG Export Plug-In . SVG Version: 6.00 Build 0)  -->
<svg version="1.1" id="Layer_1" xmlns="http://www.w3.org/2000/svg" xmlns:xlink="http://www.w3.org/1999/xlink" x="0px" y="0px"
	 viewBox="0 0 564 564" style="enable-background:new 0 0 564 564;" xml:space="preserve">
<style type="text/css">
	.st0{fill:#FFFFFF;}
	.st1{fill:none;stroke:#F0EFEF;stroke-width:1.5;stroke-miterlimit:10;}
	.st2{fill:#DD4A9A;}
	.st3{fill:#2A1021;}
	.st4{fill:#FBD9E8;}
</style>
<image style="overflow:visible;opacity:0.5;enable-background:new    ;" width="2350" height="2350" xlink:href="9655EDCC118E069C.png"  transform="matrix(0.24 0 0 0.24 0 0)">
</image>
<path class="st0" d="M108.1,31h347.8c42.6,0,77.1,34.5,77.1,77.1v347.8c0,42.6-34.5,77.1-77.1,77.1H108.1
	C65.5,533,31,498.5,31,455.9V108.1C31,65.5,65.5,31,108.1,31z"/>
<path class="st1" d="M108.1,31h347.8c42.6,0,77.1,34.5,77.1,77.1v347.8c0,42.6-34.5,77.1-77.1,77.1H108.1
	C65.5,533,31,498.5,31,455.9V108.1C31,65.5,65.5,31,108.1,31z"/>
<g id="_3_XD_Adobe">
	<rect x="122.5" y="122.5" class="st2" width="319" height="319"/>
	<rect x="136.5" y="136.6" class="st3" width="290.9" height="290.9"/>
	<path class="st4" d="M288.1,207.9h-24.9l-26.8,55.9l-27.1-55.9h-25.7l36.3,72.6l-37.6,74.4h25.4l27.2-57l27.5,57H290l-38.8-75.2
		L288.1,207.9z M357,207.9v37.4h-7.2c-24.5,0-54.1,15.8-54.1,56.2c0,31.2,15.8,54.6,49.5,54.6c24.8,0,36.5-8.6,36.5-8.6V207.9H357z
		 M357,334.6c0,0-2.8,1.2-9.5,1.2s-27.2-3-27.2-35.5s23.6-35.2,29.3-35.2s7.5,1.6,7.5,1.6V334.6z"/>
</g>
</svg>
