<?xml version="1.0" encoding="utf-8"?>
<!-- Generator: Adobe Illustrator 25.2.3, SVG Export Plug-In . SVG Version: 6.00 Build 0)  -->
<svg version="1.1" id="Layer_1" xmlns="http://www.w3.org/2000/svg" xmlns:xlink="http://www.w3.org/1999/xlink" x="0px" y="0px"
	 viewBox="0 0 96 96" style="enable-background:new 0 0 96 96;" xml:space="preserve">
<style type="text/css">
	.st0{stroke:#FFFFFF;stroke-miterlimit:10;}
</style>
<g>
	<path d="M26.85,27.36c-2.33-1.93-5.77-1.62-7.72,0.7L5.44,44.49c-1.7,2.03-1.7,4.99,0,7.02l13.7,16.44
		c1.93,2.33,5.38,2.66,7.71,0.74c2.33-1.93,2.66-5.38,0.74-7.71c-0.01-0.02-0.03-0.03-0.04-0.05L16.77,48l10.78-12.93
		C29.49,32.75,29.18,29.3,26.85,27.36z"/>
	<path d="M54.55,15.23c-2.96-0.56-5.83,1.35-6.44,4.3L37.15,74.33c-0.6,2.96,1.32,5.84,4.28,6.44c0.01,0,0.02,0,0.02,0
		c0.36,0.07,0.72,0.11,1.08,0.11c2.61,0,4.85-1.85,5.36-4.41l10.96-54.79c0.6-2.96-1.32-5.84-4.28-6.44
		C54.56,15.24,54.56,15.24,54.55,15.23z"/>
	<path d="M90.56,44.49l-13.7-16.44c-1.93-2.33-5.38-2.66-7.71-0.74c-2.33,1.93-2.66,5.38-0.74,7.71c0.01,0.02,0.03,0.03,0.04,0.05
		L79.23,48L68.45,60.93c-1.95,2.31-1.66,5.77,0.65,7.72c2.31,1.95,5.77,1.66,7.72-0.65c0.01-0.02,0.03-0.03,0.04-0.05l13.7-16.44
		C92.26,49.48,92.26,46.52,90.56,44.49z"/>
</g>
<g>
	<path class="st0" d="M26.85,27.36c-2.33-1.93-5.77-1.62-7.72,0.7L5.44,44.49c-1.7,2.03-1.7,4.99,0,7.02l13.7,16.44
		c1.93,2.33,5.38,2.66,7.71,0.74c2.33-1.93,2.66-5.38,0.74-7.71c-0.01-0.02-0.03-0.03-0.04-0.05L16.77,48l10.78-12.93
		C29.49,32.75,29.18,29.3,26.85,27.36z"/>
	<path class="st0" d="M54.55,15.23c-2.96-0.56-5.83,1.35-6.44,4.3L37.15,74.33c-0.6,2.96,1.32,5.84,4.28,6.44c0.01,0,0.02,0,0.02,0
		c0.36,0.07,0.72,0.11,1.08,0.11c2.61,0,4.85-1.85,5.36-4.41l10.96-54.79c0.6-2.96-1.32-5.84-4.28-6.44
		C54.56,15.24,54.56,15.24,54.55,15.23z"/>
	<path class="st0" d="M90.56,44.49l-13.7-16.44c-1.93-2.33-5.38-2.66-7.71-0.74c-2.33,1.93-2.66,5.38-0.74,7.71
		c0.01,0.02,0.03,0.03,0.04,0.05L79.23,48L68.45,60.93c-1.95,2.31-1.66,5.77,0.65,7.72c2.31,1.95,5.77,1.66,7.72-0.65
		c0.01-0.02,0.03-0.03,0.04-0.05l13.7-16.44C92.26,49.48,92.26,46.52,90.56,44.49z"/>
</g>
</svg>
