<?xml version="1.0" encoding="utf-8"?>
<!-- Generator: Adobe Illustrator 25.2.3, SVG Export Plug-In . SVG Version: 6.00 Build 0)  -->
<svg version="1.1" id="Layer_1" xmlns="http://www.w3.org/2000/svg" xmlns:xlink="http://www.w3.org/1999/xlink" x="0px" y="0px"
	 viewBox="0 0 564 564" style="enable-background:new 0 0 564 564;" xml:space="preserve">
<style type="text/css">
	.st0{fill:#FFFFFF;}
	.st1{fill:none;stroke:#F0EFEF;stroke-width:1.5;stroke-miterlimit:10;}
	.st2{fill:#E44F26;}
	.st3{fill:#F1672A;}
	.st4{fill:#EBEBEB;}
</style>
<image style="overflow:visible;opacity:0.5;enable-background:new    ;" width="2350" height="2350" xlink:href="A386B857995D9D26.png"  transform="matrix(0.24 0 0 0.24 0 0)">
</image>
<path class="st0" d="M108.1,31h347.8c42.6,0,77.1,34.5,77.1,77.1v347.8c0,42.6-34.5,77.1-77.1,77.1H108.1
	C65.5,533,31,498.5,31,455.9V108.1C31,65.5,65.5,31,108.1,31z"/>
<path class="st1" d="M108.1,31h347.8c42.6,0,77.1,34.5,77.1,77.1v347.8c0,42.6-34.5,77.1-77.1,77.1H108.1
	C65.5,533,31,498.5,31,455.9V108.1C31,65.5,65.5,31,108.1,31z"/>
<path class="st2" d="M151.1,427.2L122,100.5h320.1l-29.2,326.7l-131.1,36.3L151.1,427.2z"/>
<path class="st3" d="M387.9,406.4l24.9-279.2H282v308.5L387.9,406.4z"/>
<path class="st4" d="M281.9,167.3H181.5l10.8,121.2H282v-40.1h-53l-3.7-41H282v-40.1H281.9z M282,352.3l-0.2,0l-44.6-12l-2.8-32
	h-40.2l5.6,62.9l82.1,22.8l0.2-0.1V352.3z"/>
<path class="st0" d="M281.9,288.5h49.4l-4.5,52l-44.7,12v41.7l82.2-22.8l11-123H282L281.9,288.5z M381.3,178l1-10.8H281.8v40.1h96.8
	l0.8-9L381.3,178z"/>
</svg>
