<?xml version="1.0" encoding="utf-8"?>
<!-- Generator: Adobe Illustrator 25.2.3, SVG Export Plug-In . SVG Version: 6.00 Build 0)  -->
<svg version="1.1" id="Layer_1" xmlns="http://www.w3.org/2000/svg" xmlns:xlink="http://www.w3.org/1999/xlink" x="0px" y="0px"
	 viewBox="0 0 564 564" style="enable-background:new 0 0 564 564;" xml:space="preserve">
<style type="text/css">
	.st0{fill:#FFFFFF;}
	.st1{fill:none;stroke:#F0EFEF;stroke-width:1.5;stroke-miterlimit:10;}
	.st2{fill:#010101;}
</style>
<image style="overflow:visible;opacity:0.5;enable-background:new    ;" width="2350" height="2350" xlink:href="ABE79F03964E9199.png"  transform="matrix(0.24 0 0 0.24 0 0)">
</image>
<path class="st0" d="M108.1,31h347.8c42.6,0,77.1,34.5,77.1,77.1v347.8c0,42.6-34.5,77.1-77.1,77.1H108.1
	C65.5,533,31,498.5,31,455.9V108.1C31,65.5,65.5,31,108.1,31z"/>
<path class="st1" d="M108.1,31h347.8c42.6,0,77.1,34.5,77.1,77.1v347.8c0,42.6-34.5,77.1-77.1,77.1H108.1
	C65.5,533,31,498.5,31,455.9V108.1C31,65.5,65.5,31,108.1,31z"/>
<path class="st2" d="M201.2,329.5v-93.1h5.1V251c0.6-0.6,1.1-1.3,1.6-2.1c4.2-8.8,13.1-14.3,22.8-14.2c11.5-0.3,20.9,3.9,26.4,14.2
	c7.1,12.9,7.5,28.5,1.1,41.8c-5.1,11.5-17.8,17.2-31.3,15.1c-8.6-0.7-16.2-5.8-20.2-13.4v37L201.2,329.5z M206.2,269.3l1.1,10.9
	c2,12.5,9.4,19.8,20.9,21.2c11.2,1.8,22.1-4.5,26.1-15.1c4.5-10.7,4.2-22.8-0.9-33.3c-4.2-9.5-14.2-15-24.5-13.5
	c-9.6,0.7-17.8,7.4-20.2,16.7C207.7,260.5,206.8,264.9,206.2,269.3L206.2,269.3z M365.9,282c-1.6,13.5-13,23.8-26.6,24
	c-21.2,1.1-31.1-13-32.7-29.2c-1.1-8.8,0.3-17.7,4.1-25.8c5.4-11.3,17.6-17.8,30-16.1c11.8,1,21.6,9.5,24.3,21
	c1.1,5.1,1.9,10.3,2.4,15.5h-55.6c-1,14.7,6.9,26.5,18.1,29.4c14,3.4,25.9-2.6,30.2-15.9C361.1,281.5,362.8,281,365.9,282L365.9,282
	z M311.7,266.7h49.8c-0.3-15.7-10.1-27.1-23.3-27.2C323.2,239.2,312.4,250.1,311.7,266.7L311.7,266.7z M376.1,282.3h4.9
	c0.4,7.3,4.8,13.8,11.5,16.9c8.3,3.8,17.9,3.5,26.1-0.7c4.5-2,7.2-6.6,6.9-11.5c0.3-4.7-2.7-9.1-7.2-10.6c-5.4-2-11.1-3.1-16.5-4.9
	c-5.7-1.6-11.2-3.7-16.6-6.1c-8.8-4.3-9.4-21,0.6-26.4c10.4-5.9,23-6.1,33.6-0.5c6.4,3.6,10,10.7,9,18h-4.2c0-0.2-0.4-0.4-0.4-0.6
	c-0.5-13.3-11.7-17.5-23.8-16.3c-3.6,0.4-7.1,1.5-10.3,3.1c-5.4,2.8-7.6,9.4-4.8,14.8c1.2,2.4,3.2,4.2,5.7,5.2
	c5.2,1.9,10.8,3.2,16.3,4.7l13.1,3.4c6.1,2,10.4,7.6,10.7,14c1.1,7.1-2.5,14-8.9,17.2c-11.5,6.5-30.4,4.8-38.8-3.4
	C378.5,294.3,376.1,288.4,376.1,282.3L376.1,282.3z M492.4,256.6h-4.6c-0.1-0.6-0.2-1.1-0.3-1.7c-0.2-7.1-5.2-13-12.2-14.4
	c-6.4-1.8-13.1-1.5-19.3,0.9c-5,1.4-8.5,6-8.5,11.2c-0.2,5.1,3.3,9.7,8.3,10.9l20.9,5.4c2.3,0.5,4.5,1.2,6.7,2
	c8.9,3.2,13.6,13,10.4,22c-1.6,4.5-5.1,8.2-9.5,10c-9.8,4.5-21.1,4.6-31,0.3c-8.2-3.6-13.4-11.9-12.9-20.8h4.5
	c2.8,13.6,16,22.3,29.6,19.5c3-0.6,6-1.8,8.6-3.5c4.3-2.2,6.8-6.7,6.6-11.5c0.2-4.7-2.8-9.1-7.3-10.6c-5.4-2-11.1-3.1-16.5-4.9
	c-5.7-1.6-11.3-3.6-16.8-6c-8.6-4.2-9.3-20.8,0.5-26.1c10.5-6.1,23.5-6.3,34.1-0.4C489.9,242.6,493.3,249.5,492.4,256.6L492.4,256.6
	z M192.9,304.4c-3.7,1.4-7.9-0.2-9.8-3.7L165.3,276l-2.6-3.4l-20.6,28.1c-1.7,3.4-5.7,4.9-9.3,3.6l26.6-35.7l-24.7-32.2
	c3.7-1.3,7.8,0.1,9.8,3.4l18.4,24.9l18.5-24.8c1.8-3.3,5.7-4.8,9.2-3.4l-9.6,12.7l-13,16.9c-1.4,1.3-1.5,3.4-0.3,4.8c0,0,0,0,0,0
	c0.1,0.1,0.2,0.2,0.3,0.3L192.9,304.4L192.9,304.4z M305.8,236.1v4.9c-13.7-0.9-25.6,9.5-26.5,23.2c0,0.8-0.1,1.7,0,2.5v37.8h-4.9
	v-68.1h4.9v14C285.1,240.2,294.3,236.4,305.8,236.1L305.8,236.1z M69.2,268.2l2.2-10.7c6-21.1,30.2-29.9,46.9-16.9
	c9.8,7.7,12.2,18.5,11.7,30.8h-55c-0.9,21.9,14.9,35.1,35.1,28.3c6.6-2.4,11.6-7.9,13.3-14.8c1.1-3.4,2.8-4,6-3
	c-1.1,8.5-6,15.9-13.3,20.3c-12.3,6.7-27.5,4.8-37.7-4.8c-4.9-5.5-7.9-12.5-8.5-19.9c-0.1-1.2-0.3-2.3-0.7-3.4
	C69.2,272.2,69.2,270.2,69.2,268.2L69.2,268.2z M75,266.7h49.8c-0.3-15.9-10.3-27.1-23.7-27.2C86.3,239.3,75.6,250.3,75,266.7
	L75,266.7z"/>
</svg>
