<?xml version="1.0" encoding="utf-8"?>
<!-- Generator: Adobe Illustrator 25.2.3, SVG Export Plug-In . SVG Version: 6.00 Build 0)  -->
<svg version="1.1" id="Layer_1" xmlns="http://www.w3.org/2000/svg" xmlns:xlink="http://www.w3.org/1999/xlink" x="0px" y="0px"
	 viewBox="0 0 564 564" style="enable-background:new 0 0 564 564;" xml:space="preserve">
<style type="text/css">
	.st0{fill:#FFFFFF;}
	.st1{fill:none;stroke:#F0EFEF;stroke-width:1.5;stroke-miterlimit:10;}
	.st2{fill-rule:evenodd;clip-rule:evenodd;fill:#010101;}
</style>
<image style="overflow:visible;opacity:0.5;enable-background:new    ;" width="2350" height="2350" xlink:href="915759024D6ABABE.png"  transform="matrix(0.24 0 0 0.24 0 0)">
</image>
<path class="st0" d="M108.1,31h347.8c42.6,0,77.1,34.5,77.1,77.1v347.8c0,42.6-34.5,77.1-77.1,77.1H108.1
	C65.5,533,31,498.5,31,455.9V108.1C31,65.5,65.5,31,108.1,31z"/>
<path class="st1" d="M108.1,31h347.8c42.6,0,77.1,34.5,77.1,77.1v347.8c0,42.6-34.5,77.1-77.1,77.1H108.1
	C65.5,533,31,498.5,31,455.9V108.1C31,65.5,65.5,31,108.1,31z"/>
<path class="st2" d="M282,103.7c-98.5,0-178.3,81.8-178.3,182.9c0,80.8,51.1,149.3,122,173.5c8.9,1.7,12.2-4,12.2-8.8
	c0-4.4-0.2-15.9-0.2-31.1c-49.6,11.1-60.1-24.5-60.1-24.5c-8.1-21.1-19.8-26.8-19.8-26.8c-16.2-11.4,1.2-11.1,1.2-11.1
	c17.9,1.3,27.3,18.9,27.3,18.9c15.9,28,41.7,19.9,51.9,15.2c1.6-11.8,6.2-19.9,11.3-24.4c-39.6-4.6-81.2-20.3-81.2-90.4
	c0-20,6.9-36.3,18.3-49c-1.8-4.6-8-23.2,1.8-48.4c0,0,15-4.9,49,18.7c29.2-8.2,60.1-8.2,89.3,0c34.1-23.6,49-18.7,49-18.7
	c9.7,25.2,3.6,43.8,1.8,48.4c11.4,12.8,18.3,29.1,18.3,49c0,70.2-41.7,85.7-81.4,90.2c6.4,5.6,12.1,16.8,12.1,33.8
	c0,24.4-0.2,44.2-0.2,50.2c0,4.9,3.2,10.6,12.3,8.8c71-24.1,122-92.6,122-173.3C460.3,185.5,380.5,103.7,282,103.7z"/>
</svg>
