<?xml version="1.0" encoding="utf-8"?>
<!-- Generator: Adobe Illustrator 25.2.3, SVG Export Plug-In . SVG Version: 6.00 Build 0)  -->
<svg version="1.1" id="Layer_1" xmlns="http://www.w3.org/2000/svg" xmlns:xlink="http://www.w3.org/1999/xlink" x="0px" y="0px"
	 viewBox="0 0 564 564" style="enable-background:new 0 0 564 564;" xml:space="preserve">
<style type="text/css">
	.st0{fill:#FFFFFF;}
	.st1{fill:none;stroke:#F0EFEF;stroke-width:1.5;stroke-miterlimit:10;}
	.st2{fill:#507997;}
	.st3{fill:#F58220;}
</style>
<image style="overflow:visible;opacity:0.5;enable-background:new    ;" width="2350" height="2350" xlink:href="101614B559FAE237.png"  transform="matrix(0.24 0 0 0.24 0 0)">
</image>
<path class="st0" d="M108.1,31h347.8c42.6,0,77.1,34.5,77.1,77.1v347.8c0,42.6-34.5,77.1-77.1,77.1H108.1
	C65.5,533,31,498.5,31,455.9V108.1C31,65.5,65.5,31,108.1,31z"/>
<path class="st1" d="M108.1,31h347.8c42.6,0,77.1,34.5,77.1,77.1v347.8c0,42.6-34.5,77.1-77.1,77.1H108.1
	C65.5,533,31,498.5,31,455.9V108.1C31,65.5,65.5,31,108.1,31z"/>
<path class="st2" d="M230.5,390c0,0-15.2,9.2,10.6,11.9c31,4,47.5,3.3,81.9-3.3c6.9,4.2,14.2,7.8,21.8,10.6
	C267.5,442.2,169.7,407.2,230.5,390L230.5,390z M220.6,347.1c0,0-16.5,12.5,9.2,15.2c33.7,3.3,60.1,4,105.7-5.3
	c4.4,4.5,9.9,7.9,15.9,9.9C258.2,394.6,153.9,369.5,220.6,347.1L220.6,347.1z M402.9,422.4c0,0,11.2,9.2-12.5,16.5
	c-44.2,13.2-185.6,17.2-225.2,0c-13.9-5.9,12.6-14.5,21-15.9c4.3-1.1,8.8-1.8,13.2-2c-15.2-10.6-101,21.8-43.6,31
	c157.8,25.8,288-11.2,247-29.7L402.9,422.4z M237.6,302.2c0,0-72,17.2-25.8,23.1c19.8,2.6,58.8,2,95.1-0.7
	c29.7-2.6,59.5-7.9,59.5-7.9c-6.1,2.7-12.1,5.8-17.8,9.3c-73.3,19.2-214,10.6-173.7-9.2C209.2,300.2,237.6,302.2,237.6,302.2
	L237.6,302.2z M366.4,374.2c74-38.3,39.6-75.3,15.8-70.7c-2.9,0.6-5.8,1.5-8.6,2.6c1.4-2.5,3.8-4.4,6.6-5.3
	c46.9-16.5,83.9,49.5-15.2,75.3C365.6,375.5,366,374.9,366.4,374.2L366.4,374.2z M244.9,478.5c71.3,4.6,180.3-2.6,182.9-36.3
	c0,0-5.3,13.2-58.8,23.1c-60.8,11.2-136,9.9-180.3,2.6C188.8,467.9,198,475.8,244.9,478.5L244.9,478.5z"/>
<path class="st3" d="M321.6,84.2c0,0,41,41.6-39,104.3c-64.1,50.9-14.5,79.9,0,112.9c-37.6-33.7-64.7-63.4-46.2-91.1
	C263.5,169.4,338.1,149.7,321.6,84.2z M300.6,273.8c19.2,21.8-5.3,41.6-5.3,41.6s48.9-25.1,26.4-56.1
	c-20.5-29.7-36.3-44.2,49.5-93.8C371.2,165.5,235.9,199.1,300.6,273.8L300.6,273.8z"/>
</svg>
