<svg xmlns="http://www.w3.org/2000/svg" viewBox="0 0 235.76 194.9"><defs><style>.cls-1{fill:#f6f6f6;stroke:#eb1f4d;stroke-miterlimit:10;}.cls-2,.cls-4{fill:#0c6389;}.cls-3,.cls-5{fill:#e18e34;}.cls-10,.cls-4,.cls-5{fill-rule:evenodd;}.cls-6{fill:#5b9546;}.cls-7{fill:#6eab4c;}.cls-8{fill:#c2bfbf;}.cls-9{fill:#48484a;}.cls-10,.cls-30{fill:#010101;}.cls-11{fill:#ec4137;}.cls-12{fill:#db4e9a;}.cls-13{fill:#2a1120;}.cls-14{fill:#fadae8;}.cls-15{fill:#fff;}.cls-16{fill:#d4b83f;}.cls-17,.cls-18,.cls-25{fill:#ebebeb;}.cls-17{fill-opacity:0;}.cls-17,.cls-18{opacity:0.99;isolation:isolate;}.cls-18{fill-opacity:0.92;}.cls-19{fill:#fcd64e;}.cls-20{fill:#7757a1;}.cls-21{fill:#49b684;}.cls-22{fill:#374a5d;}.cls-23{fill:#445da7;}.cls-24{fill:#4969ae;}.cls-26{fill:#e15030;}.cls-27{fill:#ee6735;}.cls-28{fill:#c93b3b;}.cls-29{fill:#8fc655;}.cls-31{fill:#517995;}.cls-32{fill:#f38230;}</style></defs><g id="Layer_1" data-name="Layer 1"><rect class="cls-1" x="0.5" y="0.5" width="234.76" height="193.9" rx="16.29"/></g><g id="Layer_3" data-name="Layer 3"><path class="cls-2" d="M73.9,147h1.42v-5.62l2.2,4.91a1.22,1.22,0,0,0,1.32.8,1.2,1.2,0,0,0,1.3-.8l2.2-4.91v5.63h1.43v-5.62a.85.85,0,0,0-.68-.94c-1.08-.34-1.8-.05-2.13.68L78.8,146l-2.1-4.84c-.31-.73-1-1-2.13-.69a.86.86,0,0,0-.67,1Zm11-4.57h1.42v3.1c0,.16.06.56.84.57.39,0,3.07,0,3.09,0v-3.69h1.43v5.05c0,1.24-1.54,1.51-2.26,1.53H85v-.95h4.5c.92-.1.81-.56.81-.71V147h-3c-1.41,0-2.31-.63-2.32-1.34,0-.06,0-3.16,0-3.19Z" transform="translate(-12.27 -16.24)"/><path class="cls-3" d="M92.82,147h4.1a3.19,3.19,0,0,0,1.31-.27,1.29,1.29,0,0,0,.92-1.17v-1c0-.41-.34-.79-1-1.05a3.72,3.72,0,0,0-1.22-.21H95.19c-.57,0-.85-.17-.91-.55a.32.32,0,0,1,0-.13V142a.27.27,0,0,1,0-.12c.06-.29.22-.37.72-.42h4.2v-.95h-4a3.86,3.86,0,0,0-1.15.12c-.85.27-1.22.69-1.22,1.42v.83c0,.64.72,1.18,1.94,1.31l.41,0h1.63c.45,0,.64.12.78.28a.33.33,0,0,1,.11.25v.84a.48.48,0,0,1-.2.33,1,1,0,0,1-.61.2H92.82V147ZM108,145.39c0,1,.72,1.53,2.19,1.64h4.12v-.94H110.6c-.83,0-1.15-.21-1.15-.72v-4.91H108v4.92Zm-8,.05v-3.38c0-.86.6-1.38,1.79-1.55l.39,0h2.7l.4,0c1.19.17,1.79.69,1.79,1.55v3.38a1.24,1.24,0,0,1-.84,1.32l1.4,1.26H106l-1.14-1-1.14.07h-1.52a3.27,3.27,0,0,1-.84-.12c-.91-.25-1.34-.72-1.34-1.51Zm1.53-.08a.89.89,0,0,0,0,.14c.09.4.45.62,1,.62h1.3L102.74,145h1.65l1,.94a.65.65,0,0,0,.35-.46.3.3,0,0,0,0-.13v-3.25a.32.32,0,0,0,0-.13c-.08-.36-.45-.57-1-.57h-2.14c-.64,0-1,.27-1,.7v3.22Z" transform="translate(-12.27 -16.24)"/><path class="cls-2" d="M115.59,138.9a5.07,5.07,0,0,0-2.11.3c-.17.07-.43.07-.45.27s.1.24.17.35a2.85,2.85,0,0,0,.57.67c.23.17.46.35.7.5.43.26.91.41,1.32.67.24.16.48.35.72.52s.2.22.35.28v0a3.78,3.78,0,0,1-.17-.35l-.33-.32a5.13,5.13,0,0,0-1.14-1.09c-.34-.25-1.1-.58-1.25-1l0,0a6.27,6.27,0,0,0,.75-.17c.37-.1.7-.08,1.09-.18l.52-.15v-.1a8.3,8.3,0,0,0-.54-.64,15.94,15.94,0,0,0-1.8-1.35,10.84,10.84,0,0,0-1.14-.54c-.12-.07-.34-.1-.42-.2a4.91,4.91,0,0,1-.45-.85c-.31-.6-.62-1.26-.9-1.89a10.77,10.77,0,0,0-.54-1.24,11,11,0,0,0-4.23-4.08,4.9,4.9,0,0,0-1.4-.45l-.82,0c-.17-.07-.34-.28-.5-.37-.62-.4-2.22-1.26-2.68-.13-.29.71.43,1.41.69,1.77a4.52,4.52,0,0,1,.55.82,4.74,4.74,0,0,1,.17.57,14.48,14.48,0,0,0,.58,1.47,4.94,4.94,0,0,0,.4.67c.09.12.24.18.27.37a3.41,3.41,0,0,0-.25.82,4.79,4.79,0,0,0,.32,3.66c.18.28.59.88,1.15.65s.38-.82.52-1.37c0-.12,0-.22.08-.3v0l.44.89a6,6,0,0,0,1.42,1.47c.26.2.47.53.8.65v0h0c-.06-.1-.16-.14-.25-.22a5.89,5.89,0,0,1-.57-.65,15.78,15.78,0,0,1-1.22-2c-.17-.33-.32-.7-.47-1-.06-.14-.06-.33-.17-.4a5,5,0,0,0-.53.74,6.73,6.73,0,0,0-.3,1.65l0,0c-.34-.08-.46-.44-.59-.74a4.68,4.68,0,0,1-.1-2.92c.07-.23.41-1,.27-1.17s-.28-.33-.4-.49a4.33,4.33,0,0,1-.39-.7c-.27-.6-.4-1.28-.68-1.89a5.23,5.23,0,0,0-.54-.84,4.8,4.8,0,0,1-.6-.85.51.51,0,0,1,0-.45.21.21,0,0,1,.15-.15c.14-.11.55,0,.7.1a7.18,7.18,0,0,1,1.07.55c.16.11.32.32.52.37H104c.35.09.74,0,1.07.13a6.16,6.16,0,0,1,1.57.75,9.66,9.66,0,0,1,3.41,3.73c.13.25.18.48.3.75.23.52.51,1.07.74,1.59a7.58,7.58,0,0,0,.77,1.47c.17.22.83.34,1.12.47a6.9,6.9,0,0,1,.75.3c.38.22.74.5,1.1.74.17.13.71.4.74.63Z" transform="translate(-12.27 -16.24)"/><path class="cls-4" d="M104.47,129.42a2,2,0,0,0-.45.05v0h0a3.12,3.12,0,0,0,.34.45l.25.52,0,0a.62.62,0,0,0,.22-.55c-.06-.06-.07-.14-.12-.22s-.21-.16-.3-.25Z" transform="translate(-12.27 -16.24)"/><path class="cls-5" d="M115,146.07a1,1,0,1,0,1-1A1,1,0,0,0,115,146.07Zm1.86,0a.82.82,0,1,1-.81-.83A.81.81,0,0,1,116.87,146.07Zm-.53.6h.23l-.34-.53a.31.31,0,0,0,.32-.33c0-.24-.15-.34-.45-.34h-.46v1.2h.2v-.52H116l.32.52Zm-.5-.69v-.34h.23c.12,0,.27,0,.27.16s-.14.18-.29.18Z" transform="translate(-12.27 -16.24)"/><path class="cls-6" d="M130.09,128l.56,1.05a3.06,3.06,0,0,0,.42.53,13.2,13.2,0,0,1,1.31,1.48,12.61,12.61,0,0,1,2,4.12A10.18,10.18,0,0,1,132,145.28a8.38,8.38,0,0,1-1,.87c-.2,0-.29-.15-.37-.28a2.28,2.28,0,0,1-.28-.82,4,4,0,0,1-.1-1v-.16s-.18-15.74-.11-15.82Z" transform="translate(-12.27 -16.24)"/><path class="cls-7" d="M130.09,128s0,0-.07,0a1.11,1.11,0,0,1-.19.63,3.38,3.38,0,0,1-.5.5,10.75,10.75,0,0,0-2.45,3.12,12.69,12.69,0,0,0-1.42,5.11,17.84,17.84,0,0,0,.41,3.61,10.89,10.89,0,0,0,2.87,4.5,12.29,12.29,0,0,0,1,.87c.1,0,.11-.09.13-.16a2.42,2.42,0,0,0,.1-.45c.11-.57.16-1.14.23-1.71l-.12-16Z" transform="translate(-12.27 -16.24)"/><path class="cls-8" d="M130.65,146.85a1.66,1.66,0,0,1,.29-.7.69.69,0,0,1-.32-.29,2.11,2.11,0,0,1-.17-.38,6.18,6.18,0,0,1-.24-1.47v-.3c-.06,0-.07.44-.07.49a11,11,0,0,1-.21,1.54,1.23,1.23,0,0,1-.18.59.22.22,0,0,0,0,.08,6.88,6.88,0,0,1,.3,1.85v.23c0,.27,0,.22.22.31a.82.82,0,0,1,.28.11c.07,0,.08,0,.08-.1l0-.38v-1.05a3.08,3.08,0,0,1,0-.53Z" transform="translate(-12.27 -16.24)"/><path class="cls-9" d="M139.31,142.08v1.09a.49.49,0,0,0,0,.12.28.28,0,0,0,.21.25,1.91,1.91,0,0,0,.33.06c.06,0,.08,0,.09.11,0,.24,0,.27-.25.25-.55,0-1.1,0-1.65,0H138c-.17,0-.19,0-.19-.18,0,0,0-.06,0-.09a.07.07,0,0,1,.08-.08,2.79,2.79,0,0,0,.33-.06.3.3,0,0,0,.25-.28,4.18,4.18,0,0,0,0-.5v-1.91a.29.29,0,0,0-.15-.28,2.09,2.09,0,0,0-.41-.17l-.12,0c-.11-.05-.11-.14,0-.2a.25.25,0,0,1,.12,0,7,7,0,0,0,1.27-.33c.09,0,.11,0,.12.07a.86.86,0,0,1,0,.16,2.62,2.62,0,0,0,0,.27s0,.08,0,.1.07,0,.1,0a3.88,3.88,0,0,1,.47-.32,2.17,2.17,0,0,1,.76-.28,1.09,1.09,0,0,1,.86.26,1.69,1.69,0,0,1,.27.32c.07.1.08.1.17,0a4.22,4.22,0,0,1,.87-.51,1.38,1.38,0,0,1,1,0,1.2,1.2,0,0,1,.7.68,2,2,0,0,1,.16.8v1.91a.29.29,0,0,0,.18.28,2.23,2.23,0,0,0,.43.1c.09,0,.09,0,.09.12s0,.25-.26.23a16.45,16.45,0,0,0-1.72,0c-.12,0-.12,0-.13-.1v0c0-.19,0-.19.18-.23l.19-.05a.29.29,0,0,0,.22-.28l0-.54v-1.4a1.11,1.11,0,0,0-.08-.36.86.86,0,0,0-1-.55,1.62,1.62,0,0,0-.77.3.16.16,0,0,0-.08.15,12.71,12.71,0,0,1,0,1.38v1a.28.28,0,0,0,.24.31l.33.07c.05,0,.08,0,.08.08v.06c0,.2,0,.21-.22.2q-.87,0-1.71,0c-.2,0-.21,0-.2-.21s0-.12.13-.14l.23,0c.21,0,.29-.12.3-.34l0-.48V141.3a1.16,1.16,0,0,0-.15-.51.76.76,0,0,0-.67-.42,1.47,1.47,0,0,0-.84.24.4.4,0,0,0-.24.43v1.05Zm13.46,0v1a1.8,1.8,0,0,0,0,.22.22.22,0,0,0,.17.2,2.32,2.32,0,0,0,.38.06c.07,0,.08,0,.09.09v.05c0,.25,0,.28-.28.27a12.66,12.66,0,0,0-1.63,0h-.21s-.05,0-.06-.05a.76.76,0,0,1,0-.3s0,0,.08-.06l.29-.05a.27.27,0,0,0,.25-.3l0-.6V140.9a.25.25,0,0,0-.16-.26,2.13,2.13,0,0,0-.41-.18l-.12-.05c-.1-.06-.11-.15,0-.22a.2.2,0,0,1,.15-.06,5.68,5.68,0,0,0,1.33-.35c.05,0,.07,0,.09,0a.22.22,0,0,1,0,.14l0,.34s0,.1,0,.12.07,0,.11,0a3.15,3.15,0,0,1,.69-.45,1.42,1.42,0,0,1,.71-.15,1.2,1.2,0,0,1,1,.69,1.79,1.79,0,0,1,.19.72l0,.52v1.58a.23.23,0,0,0,.17.24,2.34,2.34,0,0,0,.38.09c.12,0,.13,0,.13.15v0c0,.25,0,.25-.27.24a14.23,14.23,0,0,0-1.6,0h-.21s-.07,0-.08-.05a.66.66,0,0,1,0-.28.07.07,0,0,1,.07-.07l.33-.06a.23.23,0,0,0,.2-.2v-1.7a2.19,2.19,0,0,0,0-.51.83.83,0,0,0-.74-.67,1.36,1.36,0,0,0-.9.23.39.39,0,0,0-.19.36v1Z" transform="translate(-12.27 -16.24)"/><path class="cls-8" d="M173.7,140.1a2.74,2.74,0,0,0-.61-1.39,2.79,2.79,0,0,0-1.1-.82,4,4,0,0,0-1.41-.25c-.2,0-2.93,0-3.13,0a.1.1,0,0,0-.12.05.83.83,0,0,0-.09.16c-.09.19-.09.18.12.21a4,4,0,0,1,.5.09.39.39,0,0,1,.29.3c0,.08,0,2.59,0,3.77l0,.83a.58.58,0,0,1,0,.19.33.33,0,0,1-.16.19.84.84,0,0,1-.31.08c-.19,0-.22,0-.28.24l0,.08c0,.09,0,.11.08.11l2.14,0h.84l.58-.08a3.65,3.65,0,0,0,1.74-.82,2.9,2.9,0,0,0,.68-.91,3,3,0,0,0,.31-1.27,2.5,2.5,0,0,0,0-.77Zm-1,1a3,3,0,0,1-.36,1.3,2,2,0,0,1-1.32,1,2.32,2.32,0,0,1-.79,0,2.63,2.63,0,0,1-.56-.1.61.61,0,0,1-.44-.63v-4.31c0-.26.12-.31.3-.32a4.83,4.83,0,0,1,.85,0,3.18,3.18,0,0,1,.86.21,2.36,2.36,0,0,1,.57.35,2.51,2.51,0,0,1,.78,1.23,3.43,3.43,0,0,1,.12,1.19Zm7,.7a.57.57,0,0,0,0-.13,1.36,1.36,0,0,0-.59-.92,2.17,2.17,0,0,0-.69-.32.42.42,0,0,0-.12,0s0,0,.05,0a1.84,1.84,0,0,0,.4-.26,1.42,1.42,0,0,0,.45-.7,1.14,1.14,0,0,0,0-.45,1.19,1.19,0,0,0-.52-.93,1.92,1.92,0,0,0-1.11-.35c-.77,0-1.55,0-2.32,0a5.15,5.15,0,0,1-.68,0s-.1,0-.13,0a1,1,0,0,0-.14.29c0,.05,0,.08.07.08l.49.08a.34.34,0,0,1,.34.3,2.17,2.17,0,0,1,0,.36v4a2.31,2.31,0,0,1-.05.46.25.25,0,0,1-.18.22,1.63,1.63,0,0,1-.43.08.21.21,0,0,0-.19.13.66.66,0,0,0-.06.2c0,.08,0,.11.09.1s2.42.05,2.87,0a5.32,5.32,0,0,0,.78-.14,2.82,2.82,0,0,0,1.2-.71,1.54,1.54,0,0,0,.44-1,1.42,1.42,0,0,0,0-.29Zm-3.47-2.93,0-.57a.16.16,0,0,1,.15-.18,2.18,2.18,0,0,1,.51,0,3,3,0,0,1,.51.09,1.08,1.08,0,0,1,.7.57,1.13,1.13,0,0,1,.1.44,1.44,1.44,0,0,1-.09.58.77.77,0,0,1-.59.49,10.18,10.18,0,0,1-1.19,0c-.11,0-.12,0-.12-.12v-.68a4.42,4.42,0,0,1,0-.63Zm2.33,3.84a1.15,1.15,0,0,1-.66.67,1.33,1.33,0,0,1-.52.09,4.92,4.92,0,0,1-.67,0,.64.64,0,0,1-.46-.56c0-.37,0-.74,0-1v-.94c0-.12,0-.15.14-.15H177l.46,0a1.53,1.53,0,0,1,.84.44,1.12,1.12,0,0,1,.31.71,1.52,1.52,0,0,1-.09.73Z" transform="translate(-12.27 -16.24)"/><path class="cls-9" d="M160.34,140.58l.19,0a.46.46,0,0,0,.5-.34.72.72,0,0,0,0-.41s-.06,0-.08,0a.82.82,0,0,1-.36.15,1.64,1.64,0,0,1-.76-.08l-.35-.12a2,2,0,0,0-.76-.1,2.64,2.64,0,0,0-1,.32,1.39,1.39,0,0,0-.7.84,1.57,1.57,0,0,0,0,.68,1.26,1.26,0,0,0,.82,1.08l.08,0c.07,0,.07.07,0,.12l-.18.12-.43.27c-.11.06-.12.11-.09.23a.79.79,0,0,0,.23.34,1.38,1.38,0,0,0,.33.2c.08,0,.08,0,0,.11l-.41.3a2.5,2.5,0,0,0-.39.34.71.71,0,0,0-.17.64,1.32,1.32,0,0,0,.37.65,1.57,1.57,0,0,0,.66.35,2.65,2.65,0,0,0,1.22.05,2.62,2.62,0,0,0,1.5-.81,1.54,1.54,0,0,0,.46-1.05,1,1,0,0,0-.77-1l-.39-.07-1.18-.11a.77.77,0,0,1-.36-.09.25.25,0,0,1-.09-.36.33.33,0,0,1,.25-.13l.23,0a2.08,2.08,0,0,0,1.2-.55,1.29,1.29,0,0,0,.37-.61,2,2,0,0,0,0-.94c0-.08,0-.09.09-.07Zm-1.75,3.56a.56.56,0,0,0,.13,0,3.89,3.89,0,0,1,.9.11l.28.11a.68.68,0,0,1,.35.72.89.89,0,0,1-.5.7,1.39,1.39,0,0,1-.6.17,1.77,1.77,0,0,1-.23,0,1.65,1.65,0,0,1-.73-.12,1,1,0,0,1-.42-.28.74.74,0,0,1,0-1.08A1.05,1.05,0,0,1,158.59,144.14Zm.81-2.23a.69.69,0,0,1-.8.44.86.86,0,0,1-.67-.48,1.58,1.58,0,0,1-.13-1.13.7.7,0,0,1,.58-.57.87.87,0,0,1,1,.47,1.53,1.53,0,0,1,.15.77,1.51,1.51,0,0,1-.11.5Zm-9-.49a2,2,0,0,0-.47-1,1.93,1.93,0,0,0-1.46-.63,2.55,2.55,0,0,0-1.37.4,1.84,1.84,0,0,0-.84,1.09,2.56,2.56,0,0,0,0,1.26,1.91,1.91,0,0,0,2.17,1.54,2.35,2.35,0,0,0,.88-.26,2,2,0,0,0,.92-.9,2.52,2.52,0,0,0,.23-1.1l0-.37Zm-1,1.59a.89.89,0,0,1-.74.6,1.23,1.23,0,0,1-.87-.22,1.47,1.47,0,0,1-.45-.54,2.75,2.75,0,0,1-.19-1.87,1,1,0,0,1,.3-.52,1,1,0,0,1,.91-.23,1.27,1.27,0,0,1,.78.52,2,2,0,0,1,.36.92,4.2,4.2,0,0,1,0,.44,2.33,2.33,0,0,1-.14.9ZM166,141.48a1.91,1.91,0,0,0-.5-1.11,1.86,1.86,0,0,0-1.44-.6,2.49,2.49,0,0,0-1.33.36,1.8,1.8,0,0,0-.89,1.18A2.44,2.44,0,0,0,162,143a1.72,1.72,0,0,0,1.16,1,2.31,2.31,0,0,0,1.69-.18,1.91,1.91,0,0,0,1-1.07,2.55,2.55,0,0,0,.17-.95,1.89,1.89,0,0,0,0-.29Zm-1,1.44a.91.91,0,0,1-.77.69,1.2,1.2,0,0,1-.84-.2,1.41,1.41,0,0,1-.49-.59,2.19,2.19,0,0,1-.23-.78,3,3,0,0,1,0-1,1.59,1.59,0,0,1,.07-.2,1,1,0,0,1,1.16-.61,1.3,1.3,0,0,1,.82.57,2.21,2.21,0,0,1,.33.94,1.82,1.82,0,0,1,0,.4,2.23,2.23,0,0,1-.11.78Z" transform="translate(-12.27 -16.24)"/><path class="cls-10" d="M139.63,168.05a11.61,11.61,0,0,0-3.57,22.54.57.57,0,0,0,.77-.56c0-.27,0-1,0-2-3.14.7-3.81-1.55-3.81-1.55a3.05,3.05,0,0,0-1.25-1.69c-1-.72.07-.7.07-.7a2.36,2.36,0,0,1,1.73,1.19,2.37,2.37,0,0,0,3.29,1,2.47,2.47,0,0,1,.71-1.54c-2.5-.3-5.14-1.29-5.14-5.72a4.52,4.52,0,0,1,1.16-3.1,4.34,4.34,0,0,1,.11-3.07s.95-.31,3.11,1.19a10.61,10.61,0,0,1,2.82-.39,10.74,10.74,0,0,1,2.83.39c2.15-1.5,3.09-1.19,3.09-1.19a4.22,4.22,0,0,1,.11,3.07,4.54,4.54,0,0,1,1.16,3.1c0,4.44-2.64,5.42-5.15,5.71a2.8,2.8,0,0,1,.77,2.14c0,1.54,0,2.79,0,3.17s.2.67.78.55a11.6,11.6,0,0,0-3.56-22.53Z" transform="translate(-12.27 -16.24)"/><path class="cls-11" d="M124.77,178.33l-9.85-9.85a1.44,1.44,0,0,0-2,0h0l-2.05,2,2.6,2.6a1.72,1.72,0,0,1,2.18,2.2l2.5,2.5a1.73,1.73,0,1,1-1,1l-2.34-2.33v6.14a1.92,1.92,0,0,1,.46.33,1.73,1.73,0,0,1-2.44,2.44h0a1.72,1.72,0,0,1,0-2.44h0a1.64,1.64,0,0,1,.56-.38v-6.2a1.71,1.71,0,0,1-.56-.37,1.73,1.73,0,0,1-.38-1.89l-2.56-2.56-6.75,6.75a1.45,1.45,0,0,0,0,2.05h0l9.85,9.86a1.47,1.47,0,0,0,2.06,0h0l9.8-9.8a1.45,1.45,0,0,0,0-2h0" transform="translate(-12.27 -16.24)"/><g id="_3_XD_Adobe" data-name="3, XD, Adobe"><rect class="cls-12" x="189.09" y="24.33" width="23.79" height="23.79"/><rect class="cls-13" x="190.13" y="25.38" width="21.7" height="21.7"/><path class="cls-14" d="M213.7,46.94h-1.85l-2,4.18-2-4.18h-1.91l2.7,5.42-2.8,5.55h1.89l2-4.25,2.06,4.25h2L211,52.3Zm5.14,0v2.79h-.53a3.92,3.92,0,0,0-4,4.19c0,2.33,1.18,4.08,3.69,4.08a4.83,4.83,0,0,0,2.72-.64V46.94Zm0,9.45a1.82,1.82,0,0,1-.71.1c-.5,0-2-.22-2-2.65s1.76-2.63,2.18-2.63a.91.91,0,0,1,.56.12v5.06Z" transform="translate(-12.27 -16.24)"/></g><rect class="cls-15" x="75.55" y="26.6" width="8.01" height="18.69"/><g id="g5193"><path id="path5113" class="cls-16" d="M79.19,62.07l-2-21.65H98.41l-2,21.63L87.8,64.51Zm15.68-1.18,1.64-18.55H87.83L87.9,62.8ZM87,45.06H84.91l0,11.11L80.8,55.05v2.54L87,59.26V45.06Z" transform="translate(-12.27 -16.24)"/><path id="path5159" class="cls-17" d="M86.33,59.06l-3-.82-2.49-.67V56.32c0-1.22,0-1.25.12-1.2l2,.56,1.89.52,0-5.54V45.12H87v7c0,5.6,0,7.05-.07,7.05l-.58-.15Z" transform="translate(-12.27 -16.24)"/><path id="path5157" class="cls-18" d="M80.81,57.59V55.05s2.61.73,4.09,1.12l0-11.1H87V59.26l-6.21-1.67Z" transform="translate(-12.27 -16.24)"/><path id="path5117" class="cls-19" d="M87.83,42.34h8.68L94.87,60.88l-7,1.91Zm6.59,15.44L95,50.84l-4.21.47v-3.7l4.49,0,.18-2.53-6.78,0,.09,9.21,4.1-.71-.06,2-4.13,1.1,0,2.51,5.71-1.48Z" transform="translate(-12.27 -16.24)"/></g><path class="cls-20" d="M152,61.34a3.08,3.08,0,0,0,3.09,3.08h17.75a3.08,3.08,0,0,0,3.09-3.08V43.58a3.08,3.08,0,0,0-3.09-3.08H155.06A3.08,3.08,0,0,0,152,43.58V61.34Z" transform="translate(-12.27 -16.24)"/><path class="cls-15" d="M161.89,51.08V47.69h3a5.44,5.44,0,0,1,.82.07,2,2,0,0,1,.7.26,1.47,1.47,0,0,1,.49.5,1.74,1.74,0,0,1,.18.84,1.51,1.51,0,0,1-.55,1.31,2.22,2.22,0,0,1-1.4.41Zm-3.18-5.86V59.7h7a7.55,7.55,0,0,0,1.9-.24,5,5,0,0,0,1.64-.75,3.74,3.74,0,0,0,1.15-1.31,4.45,4.45,0,0,0-.24-4.22,3.49,3.49,0,0,0-2-1.35,3.67,3.67,0,0,0,1.48-1.2,3.15,3.15,0,0,0,.49-1.82,4,4,0,0,0-.33-1.71,2.82,2.82,0,0,0-.95-1.1,3.94,3.94,0,0,0-1.46-.6,9,9,0,0,0-1.88-.18Zm3.18,12v-4h3.47a2.69,2.69,0,0,1,1.67.48,1.87,1.87,0,0,1,.63,1.59,1.94,1.94,0,0,1-.2.93,1.44,1.44,0,0,1-.51.58,2.09,2.09,0,0,1-.75.31,4.43,4.43,0,0,1-.9.09Z" transform="translate(-12.27 -16.24)"/><path id="path4" class="cls-21" d="M139,40.66l-3.15,5.51-3.14-5.51H122.11l13.73,23.82,13.74-23.82Z" transform="translate(-12.27 -16.24)"/><path id="path6" class="cls-22" d="M139,40.66l-3.15,5.51-3.14-5.51h-5.08L135.84,55l8.23-14.31Z" transform="translate(-12.27 -16.24)"/><g id="layer1"><polygon id="polygon2989" class="cls-23" points="61.74 24.18 59.8 45.85 51.11 48.26 42.43 45.86 40.5 24.18 61.74 24.18"/><polygon id="polygon2991" class="cls-24" points="51.12 46.42 58.15 44.47 59.8 25.95 51.12 25.95 51.12 46.42"/><polygon id="polygon2993" class="cls-25" points="51.12 33.99 44.93 33.99 45.17 36.65 51.12 36.65 51.12 33.99"/><polygon id="polygon2995" class="cls-25" points="51.12 28.61 51.11 28.61 44.45 28.61 44.7 31.27 51.12 31.27 51.12 28.61"/><polygon id="polygon2997" class="cls-25" points="45.29 37.98 45.66 42.15 51.11 43.66 51.12 43.66 51.12 40.9 51.11 40.9 48.15 40.1 47.96 37.98 46.52 37.98 45.29 37.98"/><polygon id="polygon3005" class="cls-15" points="54.38 36.65 54.08 40.1 51.11 40.9 51.11 43.66 56.56 42.15 56.6 41.7 57.23 34.7 57.29 33.99 57.77 28.61 51.11 28.61 51.11 31.27 54.86 31.27 54.62 33.99 51.11 33.99 51.11 36.65 54.38 36.65"/></g><path class="cls-26" d="M30.32,62.1,28.39,40.42H49.63L47.7,62.09,39,64.51Z" transform="translate(-12.27 -16.24)"/><path class="cls-27" d="M46,60.71l1.65-18.52H39V62.66Z" transform="translate(-12.27 -16.24)"/><path class="cls-25" d="M39,44.85H32.34l.72,8H39V50.23H35.49l-.24-2.72H39V44.85Zm0,12.28h0l-3-.8-.19-2.12H33.18l.37,4.18L39,59.89h0Z" transform="translate(-12.27 -16.24)"/><path class="cls-15" d="M39,52.89h3.28L42,56.34l-3,.8V59.9l5.45-1.51.73-8.16H39Zm6.6-7.33.06-.71H39v2.66h6.42l.06-.6Z" transform="translate(-12.27 -16.24)"/><g id="layer1-2" data-name="layer1"><path id="path4951" class="cls-28" d="M138,107.43v-2.34H126.35v-14h42v14h-21v2.34Z" transform="translate(-12.27 -16.24)"/><path id="path4949" class="cls-15" d="M145.07,105.09v-2.36h4.62V93.42h-9.31v11.67Z" transform="translate(-12.27 -16.24)"/><path id="path4947" class="cls-28" d="M145.07,95.77h2.27v4.61h-2.27Z" transform="translate(-12.27 -16.24)"/><path id="path4945" class="cls-15" d="M133.32,102.73v-7h2.35v7H138V93.42h-9.3v9.31Z" transform="translate(-12.27 -16.24)"/><path id="path2998" class="cls-15" d="M156.65,102.73v-7H159v7h2.35v-7h2.35v7h2.35V93.42H152v9.31Z" transform="translate(-12.27 -16.24)"/></g><path class="cls-29" d="M108.37,85.47a2.14,2.14,0,0,1,2.08,0L120,90.86a1.94,1.94,0,0,1,1,1.69v10.8a2,2,0,0,1-1.07,1.73l-9.5,5.36a2.09,2.09,0,0,1-2.12,0l-2.85-1.65a1.81,1.81,0,0,1-.55-.4c.12-.16.34-.18.52-.25a6,6,0,0,0,1.12-.53.26.26,0,0,1,.29,0l2.44,1.41c.17.1.35,0,.49-.12l9.34-5.27a.32.32,0,0,0,.17-.3V92.6a.34.34,0,0,0-.2-.34l-9.48-5.34a.37.37,0,0,0-.38,0l-9.47,5.35a.36.36,0,0,0-.2.34v10.7a.31.31,0,0,0,.18.3l2.53,1.42a2,2,0,0,0,1.58.22,1.21,1.21,0,0,0,.78-1.13V93.48a.27.27,0,0,1,.29-.27h1.22a.29.29,0,0,1,.26.33v10.7a2.72,2.72,0,0,1-1.27,2.45,3.92,3.92,0,0,1-3.5-.1l-2.72-1.5a1.94,1.94,0,0,1-1.06-1.73V92.56a2,2,0,0,1,1-1.72ZM111.12,93a7.59,7.59,0,0,1,4.11.63,3.08,3.08,0,0,1,1.51,2.68.28.28,0,0,1-.31.22h-1.2c-.18,0-.27-.15-.3-.3a1.81,1.81,0,0,0-.87-1.26,5.32,5.32,0,0,0-2.41-.35,3.43,3.43,0,0,0-1.72.43,1.09,1.09,0,0,0-.36,1.22c.13.31.48.41.77.5,1.67.43,3.43.4,5.07,1a2.41,2.41,0,0,1,1.57,1.4,3,3,0,0,1-.51,2.84,4,4,0,0,1-2.14,1.16,10.29,10.29,0,0,1-3.23.13,5.1,5.1,0,0,1-2.84-1.06,3,3,0,0,1-1-2.36.28.28,0,0,1,.3-.24h1.2a.27.27,0,0,1,.28.28,1.83,1.83,0,0,0,.69,1.29,5.12,5.12,0,0,0,2.79.5,3.73,3.73,0,0,0,2.29-.56,1.26,1.26,0,0,0,.34-1.2c-.1-.36-.48-.53-.8-.64-1.64-.52-3.43-.34-5.06-.92a2.47,2.47,0,0,1-1.55-1.36,2.78,2.78,0,0,1,.55-2.89,4.46,4.46,0,0,1,2.78-1.11Z" transform="translate(-12.27 -16.24)"/><path class="cls-30" d="M59.22,104.54V94.14h.56v1.63a2.11,2.11,0,0,0,.19-.23A2.8,2.8,0,0,1,62.52,94a3,3,0,0,1,2.94,1.58,5.1,5.1,0,0,1,.13,4.67,3.16,3.16,0,0,1-3.5,1.68,2.82,2.82,0,0,1-2.26-1.49v4.14Zm.56-6.72L59.91,99a2.57,2.57,0,0,0,2.33,2.37,2.68,2.68,0,0,0,2.92-1.69,4.55,4.55,0,0,0-.1-3.72,2.58,2.58,0,0,0-2.74-1.51,2.53,2.53,0,0,0-2.26,1.87,14.46,14.46,0,0,0-.28,1.46Zm17.83,1.41a3,3,0,0,1-3,2.69A3.29,3.29,0,0,1,71,98.65a5.12,5.12,0,0,1,.46-2.88A3.2,3.2,0,0,1,74.79,94a3.07,3.07,0,0,1,2.73,2.34,16.81,16.81,0,0,1,.27,1.73H71.57a3,3,0,0,0,2,3.28A2.66,2.66,0,0,0,77,99.56c.11-.38.3-.44.65-.33Zm-6-1.71h5.56a2.82,2.82,0,0,0-2.61-3A2.9,2.9,0,0,0,71.57,97.52Zm7.19,1.75h.55a2.16,2.16,0,0,0,1.28,1.88,3.37,3.37,0,0,0,2.91-.07,1.32,1.32,0,0,0,.77-1.29,1.19,1.19,0,0,0-.8-1.19c-.6-.22-1.23-.34-1.85-.54a14.32,14.32,0,0,1-1.86-.68,1.77,1.77,0,0,1,.07-2.94,3.9,3.9,0,0,1,3.75-.06,2,2,0,0,1,1,2h-.46s-.05,0-.05-.06c0-1.49-1.31-2-2.65-1.83a3.49,3.49,0,0,0-1.15.35A1.14,1.14,0,0,0,79.6,96a1.16,1.16,0,0,0,.77,1.09c.58.21,1.21.35,1.81.52l1.47.38a1.74,1.74,0,0,1,1.19,1.57,1.85,1.85,0,0,1-1,1.92,4.11,4.11,0,0,1-4.34-.39,2.58,2.58,0,0,1-.75-1.82Zm13-2.88h-.52a1.08,1.08,0,0,0,0-.19,1.66,1.66,0,0,0-1.36-1.6,3.33,3.33,0,0,0-2.16.1A1.31,1.31,0,0,0,86.75,96a1.19,1.19,0,0,0,.92,1.21l2.33.6a6.49,6.49,0,0,1,.75.23,1.92,1.92,0,0,1,.1,3.58,4.26,4.26,0,0,1-3.46,0A2.37,2.37,0,0,1,86,99.27h.49a2.81,2.81,0,0,0,4.27,1.79,1.4,1.4,0,0,0,.74-1.29,1.2,1.2,0,0,0-.81-1.18c-.6-.22-1.24-.34-1.85-.54a13.41,13.41,0,0,1-1.87-.67,1.77,1.77,0,0,1,0-2.92,3.88,3.88,0,0,1,3.82,0,2,2,0,0,1,1,2Zm-33.47,5.34a.87.87,0,0,1-1.09-.41l-2-2.75-.29-.38-2.3,3.13a.85.85,0,0,1-1,.41l3-4-2.76-3.6a.91.91,0,0,1,1.09.38l2.06,2.78L57,94.54a.82.82,0,0,1,1-.38L57,95.58l-1.45,1.89a.37.37,0,0,0,0,.54l0,0,2.76,3.69ZM70.9,94.11v.54a2.78,2.78,0,0,0-3,2.6,2.53,2.53,0,0,0,0,.28v4.22h-.55V94.14h.54V95.7a3.23,3.23,0,0,1,3-1.59ZM44.47,97.7l.24-1.2A3.33,3.33,0,0,1,50,94.62a3.85,3.85,0,0,1,1.31,3.44H45.11C45,100.5,46.77,102,49,101.22a2.37,2.37,0,0,0,1.49-1.65c.12-.39.31-.45.67-.34a3.11,3.11,0,0,1-1.49,2.28,3.62,3.62,0,0,1-4.21-.54,3.82,3.82,0,0,1-.94-2.22,1.69,1.69,0,0,0-.08-.39V97.7Zm.65-.17h5.56a2.82,2.82,0,0,0-2.65-3,2.89,2.89,0,0,0-2.92,3Z" transform="translate(-12.27 -16.24)"/><path class="cls-31" d="M197.19,99.93s-.92.55.64.71a12.9,12.9,0,0,0,4.92-.2,7.31,7.31,0,0,0,1.32.64c-4.65,2-10.54-.12-6.88-1.15Zm-.6-2.59s-1,.76.56.92a18.94,18.94,0,0,0,6.36-.32,2.45,2.45,0,0,0,1,.59c-5.61,1.67-11.89.16-7.88-1.19Zm11,4.53s.67.56-.76,1c-2.66.79-11.17,1-13.55,0-.84-.36.75-.88,1.26-1a4,4,0,0,1,.8-.12c-.92-.63-6.09,1.31-2.63,1.87,9.5,1.55,17.33-.68,14.87-1.79Zm-9.95-7.23s-4.33,1-1.55,1.39a34.31,34.31,0,0,0,5.72,0c1.79-.16,3.58-.48,3.58-.48a9.9,9.9,0,0,0-1.07.56c-4.41,1.15-12.88.64-10.46-.56a8.28,8.28,0,0,1,3.78-.87ZM205.37,99c4.45-2.31,2.39-4.53,1-4.25a2.5,2.5,0,0,0-.52.16.69.69,0,0,1,.4-.32c2.82-1,5,3-.92,4.53a.5.5,0,0,0,.08-.12Zm-7.31,6.28c4.29.28,10.85-.16,11-2.19,0,0-.32.8-3.54,1.39a35.55,35.55,0,0,1-10.85.16s.56.48,3.38.64Z" transform="translate(-12.27 -16.24)"/><path class="cls-32" d="M202.68,81.52s2.46,2.51-2.35,6.28c-3.86,3.06-.87,4.81,0,6.8-2.27-2-3.89-3.82-2.78-5.49C199.18,86.65,203.67,85.46,202.68,81.52Zm-1.27,11.41a1.73,1.73,0,0,1-.32,2.5s2.94-1.51,1.59-3.38-2.18-2.66,3-5.64C205.66,86.41,197.52,88.44,201.41,92.93Z" transform="translate(-12.27 -16.24)"/></g></svg>